<?xml version="1.0" encoding="utf-8"?>
<!-- Generator: Adobe Illustrator 27.5.0, SVG Export Plug-In . SVG Version: 6.00 Build 0)  -->
<svg version="1.1" xmlns="http://www.w3.org/2000/svg" xmlns:xlink="http://www.w3.org/1999/xlink" x="0px" y="0px"
	 viewBox="0 0 800 800" style="enable-background:new 0 0 800 800;" xml:space="preserve">
<g id="Background">
	<rect x="-0.049" y="0.063" style="fill:#0B1626;" width="800" height="800"/>
</g>
<g id="Objects">
	<g>
		<defs>
			<rect id="SVGID_1_" x="-0.049" y="0.063" width="800" height="800"/>
		</defs>
		<clipPath id="SVGID_00000134950625071881692480000009624627698003962290_">
			<use xlink:href="#SVGID_1_"  style="overflow:visible;"/>
		</clipPath>
		<g style="clip-path:url(#SVGID_00000134950625071881692480000009624627698003962290_);">
			<g>
				
					<linearGradient id="SVGID_00000073684748424972021260000005062573998159519387_" gradientUnits="userSpaceOnUse" x1="-109.2263" y1="489.5228" x2="1001.1231" y2="489.5228">
					<stop  offset="0" style="stop-color:#3DFFED"/>
					<stop  offset="0.9966" style="stop-color:#CB00DD"/>
				</linearGradient>
				<path style="fill:url(#SVGID_00000073684748424972021260000005062573998159519387_);" d="M-109.183,532.352l-0.043-0.461
					l3.528-0.338c67.918-6.495,138.149-13.213,197.407-43.805c4.792-2.475,9.643-5.071,14.335-7.582
					c18.76-10.041,38.159-20.424,59.024-25.817c36.412-9.41,74.772-3.133,107.493,4.249c21.364,4.82,42.858,10.675,63.645,16.337
					c28.469,7.754,57.907,15.772,87.398,21.236c60.666,11.24,110.898,9.118,153.564-6.487c12.62-4.616,24.951-10.597,36.875-16.38
					c15.562-7.549,31.654-15.354,48.545-20.194c57.035-16.342,117.59,1.592,169.873,19.684c3.743,1.295,7.495,2.603,11.254,3.915
					c51.025,17.788,103.789,36.19,157.358,30.344l0.051,0.46c-53.679,5.858-106.486-12.56-157.56-30.367
					c-3.759-1.311-7.51-2.618-11.255-3.914c-52.216-18.068-112.693-35.982-169.593-19.677
					c-16.853,4.829-32.927,12.625-48.471,20.165c-11.935,5.789-24.277,11.776-36.918,16.398
					c-42.748,15.635-93.056,17.763-153.808,6.509c-29.509-5.467-58.956-13.488-87.434-21.245
					c-20.783-5.661-42.272-11.514-63.625-16.332c-32.667-7.37-70.958-13.641-107.277-4.252
					c-20.811,5.379-40.185,15.749-58.921,25.777c-4.693,2.512-9.545,5.11-14.341,7.586
					c-59.337,30.634-129.613,37.355-197.575,43.855L-109.183,532.352z"/>
			</g>
			<g>
				
					<linearGradient id="SVGID_00000114762042754395376650000013685345103050053764_" gradientUnits="userSpaceOnUse" x1="-109.2471" y1="498.0231" x2="1001.04" y2="498.0231">
					<stop  offset="0" style="stop-color:#3DFFED"/>
					<stop  offset="0.9966" style="stop-color:#CB00DD"/>
				</linearGradient>
				<path style="fill:url(#SVGID_00000114762042754395376650000013685345103050053764_);" d="M-109.211,542.063l-0.036-0.461
					c69.367-5.288,142.106-13.055,202.029-44.177c5.247-2.724,10.553-5.592,15.685-8.364c18.4-9.942,37.427-20.222,57.661-26.078
					c35.655-10.355,73.564-6.504,105.944-1.372c30.874,4.894,60.531,11.001,96.093,18.478c17.322,3.616,32.94,7.148,47.745,10.801
					c2.156,0.532,4.307,1.05,6.453,1.565c7.166,1.723,13.039,3.057,18.484,4.2c26.703,5.607,50.484,8.197,72.682,7.934
					c20.599-0.202,40.386-3.186,58.811-8.865c14.066-4.334,27.933-10.43,41.343-16.325c4.407-1.938,8.964-3.942,13.476-5.86
					c8.602-3.657,20.007-8.295,31.94-11.731c7.246-2.086,14.826-3.781,22.53-5.037c20.251-3.296,39.922-3.666,60.14-1.13
					c24.175,3.028,48.115,10.319,68.655,16.915c5.898,1.893,12.189,3.982,19.797,6.576l6.571,2.244
					c14.634,5,29.766,10.171,44.827,14.693c62.214,18.688,96.475,18.345,119.373,15.957l0.049,0.461
					c-43.67,4.55-86.831-6.144-119.555-15.975c-15.069-4.523-30.205-9.696-44.843-14.699l-6.571-2.244
					c-7.604-2.591-13.893-4.68-19.788-6.572c-20.521-6.59-44.435-13.875-68.572-16.897c-20.169-2.531-39.799-2.162-60.008,1.128
					c-7.685,1.253-15.247,2.944-22.475,5.025c-11.91,3.429-23.297,8.06-31.888,11.713c-4.509,1.917-9.065,3.92-13.47,5.857
					c-13.422,5.901-27.301,12.003-41.394,16.345c-18.467,5.692-38.298,8.682-58.941,8.885c-22.241,0.273-46.045-2.329-72.783-7.943
					c-5.448-1.144-11.326-2.479-18.497-4.204c-2.145-0.516-4.299-1.033-6.455-1.565c-14.801-3.652-30.413-7.185-47.729-10.798
					c-35.556-7.475-65.208-13.581-96.071-18.473c-32.33-5.123-70.174-8.968-105.744,1.359c-20.187,5.842-39.191,16.11-57.569,26.04
					c-5.134,2.774-10.442,5.642-15.692,8.368C32.994,528.999-39.797,536.772-109.211,542.063z"/>
			</g>
			<g>
				
					<linearGradient id="SVGID_00000132798268938956090550000000556428214696957061_" gradientUnits="userSpaceOnUse" x1="-109.2661" y1="506.3509" x2="1000.9569" y2="506.3509">
					<stop  offset="0" style="stop-color:#3DFFED"/>
					<stop  offset="0.9966" style="stop-color:#CB00DD"/>
				</linearGradient>
				<path style="fill:url(#SVGID_00000132798268938956090550000000556428214696957061_);" d="M-109.24,551.775l-0.026-0.462
					c28.789-1.637,66.639-4.426,104.093-11.528c38.524-7.305,70.915-17.995,99.026-32.68c5.769-3.011,11.597-6.192,17.233-9.267
					c17.972-9.806,36.556-19.945,56.102-26.217c34.693-11.194,70.677-9.976,104.394-6.991c34.851,3.086,65.067,6.788,95.094,11.652
					c18.054,2.876,33.788,6.339,48.1,10.589c0.984,0.292,1.966,0.581,2.946,0.869c1.136,0.334,2.27,0.668,3.398,1.003l2.568,0.766
					c5.051,1.508,10.274,3.066,15.373,4.503c26.336,7.417,48.607,11.509,70.09,12.88c20.117,1.285,39.749-0.439,58.359-5.122
					c15.832-3.98,31.596-10.269,46.84-16.35c2.945-1.174,5.895-2.351,8.853-3.515c10.069-3.963,20.964-8.086,32.406-11.395
					c7.279-2.106,14.912-3.914,22.687-5.372c22.303-4.169,41.458-5.205,60.271-3.265c23.781,2.447,48.008,10.185,69.384,17.012
					c5.843,1.867,12.02,3.898,20.03,6.587l2.349,0.789c16.229,5.451,33.011,11.088,49.742,15.826
					c32.771,9.285,76.118,19.372,120.84,14.914l0.045,0.461c-7.532,0.751-15.033,1.089-22.443,1.089
					c-36.658,0.002-71.275-8.286-98.568-16.02c-16.742-4.74-33.528-10.379-49.763-15.832l-2.349-0.789
					c-8.006-2.689-14.182-4.719-20.023-6.586c-21.353-6.82-45.557-14.551-69.289-16.992c-18.775-1.94-37.883-0.902-60.139,3.26
					c-7.76,1.455-15.379,3.26-22.643,5.362c-11.423,3.304-22.306,7.423-32.365,11.381c-2.958,1.164-5.907,2.341-8.851,3.515
					c-15.258,6.087-31.036,12.382-46.899,16.369c-18.657,4.695-38.341,6.422-58.499,5.137c-21.517-1.374-43.819-5.472-70.186-12.898
					c-5.103-1.436-10.328-2.996-15.38-4.504l-2.568-0.767c-1.128-0.335-2.261-0.669-3.397-1.003
					c-0.979-0.288-1.962-0.577-2.947-0.87c-14.293-4.243-30.008-7.702-48.042-10.574c-30.016-4.863-60.222-8.564-95.062-11.648
					c-33.668-2.982-69.596-4.197-104.211,6.971c-19.506,6.258-38.069,16.387-56.023,26.182c-5.638,3.076-11.468,6.258-17.239,9.271
					c-28.152,14.707-60.586,25.41-99.155,32.725C-42.567,547.346-80.436,550.138-109.24,551.775z"/>
			</g>
			<g>
				
					<linearGradient id="SVGID_00000008865341288004834440000013934610354103534271_" gradientUnits="userSpaceOnUse" x1="-109.2877" y1="514.5093" x2="1000.8747" y2="514.5093">
					<stop  offset="0" style="stop-color:#3DFFED"/>
					<stop  offset="0.9966" style="stop-color:#CB00DD"/>
				</linearGradient>
				<path style="fill:url(#SVGID_00000008865341288004834440000013934610354103534271_);" d="M-109.27,561.487l-0.018-0.462
					c40.044-1.507,74.238-5.065,104.537-10.88c38.354-7.361,70.959-18.273,99.678-33.362c6.366-3.341,12.791-6.884,19.005-10.31
					c17.466-9.629,35.527-19.587,54.318-26.215c35.352-12.563,71.619-13.1,102.842-12.61c29.571,0.462,60.15,0.938,94.095,4.826
					c18.406,2.04,34.256,5.434,48.455,10.374l1.5,0.521c1.591,0.553,3.172,1.101,4.737,1.661c3.012,1.079,5.983,2.17,8.929,3.251
					c2.841,1.043,5.659,2.078,8.471,3.086c25.882,9.283,47.329,14.949,67.498,17.83c19.514,2.787,38.997,2.321,57.906-1.384
					c17.971-3.514,35.263-9.801,53.57-16.457l2.995-1.089c10.967-3.982,21.735-7.823,32.873-11.06
					c7.313-2.125,14.998-4.044,22.843-5.705c17.453-3.684,38.274-7.208,60.402-5.401c22.12,1.793,44.063,8.797,65.284,15.57
					c1.611,0.514,3.221,1.028,4.828,1.538c7.076,2.248,14.214,4.598,20.263,6.6c16.221,5.365,34.606,11.447,52.785,16.291
					c48.75,13.004,86.469,17.284,122.306,13.873l0.043,0.461c-35.891,3.413-73.663-0.868-122.468-13.887
					c-18.191-4.847-36.583-10.931-52.81-16.298c-6.049-2.002-13.186-4.351-20.259-6.598c-1.607-0.51-3.217-1.024-4.829-1.538
					c-21.196-6.765-43.113-13.761-65.181-15.55c-22.065-1.797-42.847,1.717-60.268,5.392c-7.834,1.659-15.508,3.576-22.81,5.698
					c-11.123,3.233-21.883,7.072-32.844,11.051l-2.994,1.088c-18.325,6.663-35.633,12.956-53.64,16.476
					c-18.962,3.716-38.495,4.182-58.06,1.387c-20.201-2.886-41.677-8.558-67.588-17.852c-2.813-1.008-5.633-2.043-8.474-3.086
					c-2.945-1.081-5.914-2.172-8.925-3.25c-1.564-0.559-3.143-1.107-4.733-1.659l-1.5-0.521
					c-14.166-4.929-29.983-8.314-48.355-10.352c-33.924-3.885-64.491-4.362-94.051-4.822c-31.176-0.487-67.399,0.046-102.681,12.583
					c-18.755,6.616-36.799,16.564-54.249,26.184c-6.216,3.427-12.643,6.97-19.013,10.315c-28.76,15.109-61.407,26.037-99.806,33.406
					C-34.985,556.418-69.202,559.979-109.27,561.487z"/>
			</g>
			<g>
				
					<linearGradient id="SVGID_00000063626990526282174960000017770113578057217409_" gradientUnits="userSpaceOnUse" x1="-109.3076" y1="519.4926" x2="1000.7916" y2="519.4926">
					<stop  offset="0" style="stop-color:#3DFFED"/>
					<stop  offset="0.9966" style="stop-color:#CB00DD"/>
				</linearGradient>
				<path style="fill:url(#SVGID_00000063626990526282174960000017770113578057217409_);" d="M-109.299,571.198l-0.009-0.462
					c84.735-1.573,151.891-16.055,205.308-44.274c7.063-3.728,14.182-7.697,21.065-11.534c16.862-9.4,34.298-19.121,52.245-26.033
					c34.037-13.221,68.702-16.254,101.29-18.227c3.296-0.2,6.581-0.406,9.862-0.612c26.255-1.646,53.402-3.349,83.237-1.389
					c18.844,1.237,34.81,4.561,48.81,10.16l0.38,0.153c1.898,0.759,3.861,1.544,5.749,2.339c4.123,1.735,8.171,3.539,12.083,5.284
					c1.599,0.712,3.188,1.421,4.774,2.121c18.556,8.198,40.778,17.315,64.906,22.778c18.889,4.276,38.218,5.07,57.453,2.356
					c18.859-2.651,37.17-8.464,57.438-15.226l3.98-1.33c9.559-3.196,19.443-6.5,29.358-9.395c7.291-2.128,15.029-4.16,23-6.039
					c20.742-4.872,39.615-8.795,60.533-7.538c21.188,1.268,42.166,8.007,62.452,14.525c2.805,0.901,5.6,1.799,8.388,2.681
					c7.045,2.226,14.193,4.556,20.497,6.612c18.002,5.867,35.637,11.503,53.477,15.968c48.092,12.051,87.419,16.126,123.772,12.83
					l0.042,0.461c-36.398,3.302-75.78-0.778-123.925-12.842c-17.854-4.468-35.498-10.107-53.507-15.977
					c-6.305-2.055-13.45-4.384-20.494-6.61c-2.789-0.882-5.586-1.78-8.39-2.681c-20.26-6.509-41.209-13.24-62.338-14.504
					c-20.857-1.263-39.694,2.663-60.4,7.526c-7.962,1.878-15.693,3.907-22.976,6.034c-9.907,2.892-19.787,6.195-29.342,9.389
					l-3.98,1.33c-20.29,6.769-38.622,12.589-57.519,15.246c-19.29,2.72-38.674,1.924-57.621-2.363
					c-24.165-5.472-46.414-14.599-64.989-22.807c-1.587-0.7-3.177-1.409-4.775-2.122c-3.911-1.743-7.956-3.546-12.075-5.279
					c-1.885-0.793-3.846-1.577-5.742-2.336l-0.38-0.152c-13.954-5.582-29.874-8.895-48.669-10.129
					c-29.805-1.956-56.937-0.255-83.176,1.39c-3.281,0.205-6.568,0.412-9.863,0.612c-32.552,1.971-67.176,4.999-101.152,18.197
					c-17.917,6.901-35.339,16.613-52.188,26.006c-6.886,3.839-14.007,7.809-21.074,11.538
					C42.735,555.123-24.49,569.623-109.299,571.198z"/>
			</g>
			<g>
				
					<linearGradient id="SVGID_00000029737026636458741010000018025155718029881522_" gradientUnits="userSpaceOnUse" x1="-109.3284" y1="522.8563" x2="1000.7094" y2="522.8563">
					<stop  offset="0" style="stop-color:#3DFFED"/>
					<stop  offset="0.9966" style="stop-color:#CB00DD"/>
				</linearGradient>
				<path style="fill:url(#SVGID_00000029737026636458741010000018025155718029881522_);" d="M-109.102,580.909
					c-0.079,0-0.147,0-0.227,0v-0.463c0.075,0,0.153,0,0.228,0c81.456,0,150.82-14.906,206.174-44.308
					c7.883-4.182,15.814-8.658,23.485-12.986c16.134-9.103,32.818-18.516,49.814-25.623c35.028-14.778,70.908-19.805,99.737-23.844
					c4.862-0.68,9.777-1.405,14.53-2.105c24.258-3.574,49.345-7.277,77.57-6.722c19.133,0.373,35.215,3.626,49.166,9.946
					c1.838,0.833,3.973,1.805,6.022,2.801c4.76,2.316,9.346,4.76,13.781,7.124l2.535,1.349
					c22.428,11.926,41.607,21.205,62.314,27.727c17.991,5.665,37.699,7.771,57,6.094c19.643-1.698,39.634-7.207,58.311-12.907
					c4.231-1.291,8.54-2.636,12.709-3.937c6.889-2.151,14.013-4.374,21.096-6.452c7.272-2.132,14.847-4.216,23.157-6.373l3.049-0.79
					c19.204-4.981,37.343-9.694,57.613-8.883c20.629,0.807,41.008,7.42,60.716,13.816c3.563,1.156,7.248,2.352,10.852,3.486
					c5.923,1.862,11.919,3.791,17.718,5.655l3.013,0.968c17.173,5.517,35.502,11.269,54.169,15.646
					c48.015,11.275,87.808,15.022,125.237,11.788l0.04,0.461c-37.475,3.237-77.319-0.51-125.382-11.799
					c-18.685-4.381-37.024-10.136-54.206-15.655l-3.013-0.969c-5.799-1.864-11.796-3.792-17.716-5.654
					c-3.606-1.134-7.292-2.33-10.856-3.486c-19.678-6.386-40.026-12.99-60.591-13.794c-20.197-0.793-38.308,3.894-57.479,8.868
					l-3.05,0.79c-8.305,2.155-15.875,4.239-23.143,6.37c-7.079,2.076-14.201,4.298-21.089,6.449
					c-4.169,1.301-8.479,2.646-12.711,3.938c-18.702,5.707-38.72,11.223-58.406,12.924c-19.359,1.684-39.131-0.429-57.179-6.114
					c-20.74-6.531-39.941-15.821-62.392-27.759l-2.535-1.35c-4.431-2.362-9.013-4.804-13.765-7.117
					c-2.044-0.994-4.175-1.964-6.011-2.796c-13.892-6.293-29.915-9.533-48.984-9.904c-28.199-0.546-53.254,3.146-77.494,6.717
					c-4.754,0.7-9.669,1.424-14.533,2.105c-28.803,4.036-64.649,9.057-99.621,23.812c-16.973,7.097-33.644,16.503-49.767,25.6
					c-7.673,4.329-15.607,8.807-23.495,12.991C41.872,565.983-27.575,580.909-109.102,580.909z"/>
			</g>
			<g>
				
					<linearGradient id="SVGID_00000097467599023560527600000011341834493272783262_" gradientUnits="userSpaceOnUse" x1="-109.3573" y1="525.8611" x2="1000.6263" y2="525.8611">
					<stop  offset="0" style="stop-color:#3DFFED"/>
					<stop  offset="0.9966" style="stop-color:#CB00DD"/>
				</linearGradient>
				<path style="fill:url(#SVGID_00000097467599023560527600000011341834493272783262_);" d="M-99.077,590.719
					c-3.518,0-6.944-0.034-10.28-0.099l0.009-0.463c54.816,1.047,135.311-5.795,207.495-44.341
					c8.859-4.724,17.754-9.81,26.357-14.729c15.252-8.72,31.023-17.737,46.932-24.921c32.528-14.825,65.577-22.191,94.737-28.69
					l3.447-0.769c5.483-1.224,11.018-2.533,16.37-3.799c23.158-5.478,47.106-11.142,74.733-11.857
					c19.146-0.495,35.811,2.779,49.52,9.732c1.769,0.896,3.854,1.966,5.914,3.109c5.159,2.865,10.031,5.931,14.742,8.895
					l1.031,0.649c20.486,12.894,39.121,24.253,59.723,32.677c17.353,7.095,36.898,10.494,56.548,9.832
					c21.195-0.703,42.762-6.028,59.182-10.589c7.876-2.186,15.9-4.581,23.659-6.898c3.53-1.054,7.066-2.11,10.613-3.155
					c8.266-2.434,16.424-4.757,23.314-6.707c2.703-0.762,5.382-1.539,8.048-2.312c17.498-5.072,34.039-9.854,52.747-9.496
					c20.288,0.383,40.28,6.949,59.615,13.298c4.165,1.368,8.471,2.782,12.681,4.1c4.747,1.485,9.488,2.991,14.22,4.495
					c2.251,0.715,4.499,1.43,6.745,2.141c20.309,6.432,37.411,11.499,54.863,15.323c47.193,10.359,88.635,13.871,126.702,10.747
					l0.038,0.461c-38.112,3.132-79.6-0.388-126.839-10.756c-17.469-3.827-34.582-8.898-54.903-15.333
					c-2.247-0.711-4.495-1.425-6.746-2.141c-4.731-1.503-9.471-3.01-14.217-4.494c-4.214-1.318-8.522-2.733-12.689-4.102
					c-19.302-6.338-39.261-12.893-59.48-13.275c-18.679-0.372-35.145,4.416-52.609,9.478c-2.666,0.773-5.347,1.55-8.051,2.312
					c-6.889,1.951-15.045,4.273-23.31,6.707c-3.545,1.043-7.081,2.1-10.611,3.153c-7.761,2.318-15.786,4.714-23.666,6.902
					c-16.446,4.567-38.047,9.901-59.291,10.605c-19.714,0.661-39.325-2.747-56.739-9.866c-20.637-8.438-39.289-19.807-59.794-32.713
					l-1.032-0.648c-4.706-2.962-9.572-6.024-14.719-8.883c-2.054-1.139-4.135-2.207-5.9-3.102
					c-13.641-6.918-30.25-10.175-49.298-9.681c-27.58,0.714-51.503,6.372-74.639,11.844c-5.354,1.266-10.891,2.576-16.376,3.801
					l-3.448,0.769c-29.137,6.493-62.162,13.854-94.646,28.659c-15.889,7.175-31.651,16.187-46.893,24.901
					c-8.605,4.92-17.504,10.008-26.368,14.736C30.486,582.47-44.725,590.719-99.077,590.719z"/>
			</g>
			<g>
				
					<linearGradient id="SVGID_00000102505164620697620930000005840431676598256040_" gradientUnits="userSpaceOnUse" x1="-109.3871" y1="528.8052" x2="1000.5441" y2="528.8052">
					<stop  offset="0" style="stop-color:#3DFFED"/>
					<stop  offset="0.9966" style="stop-color:#CB00DD"/>
				</linearGradient>
				<path style="fill:url(#SVGID_00000102505164620697620930000005840431676598256040_);" d="M-91.438,600.67
					c-5.965,0-11.949-0.113-17.949-0.339l0.018-0.463c36.333,1.371,72.099-1.418,106.305-8.287
					c37.162-7.463,71.576-19.604,102.285-36.087c10.042-5.383,20.1-11.22,29.828-16.864c14.164-8.219,28.81-16.718,43.447-23.826
					c29.607-14.51,59.53-23.684,85.93-31.779c3.614-1.107,7.182-2.202,10.701-3.294c5.708-1.771,11.465-3.67,17.032-5.506
					c22.429-7.398,45.623-15.046,73.075-16.978c19.432-1.367,36.211,1.834,49.874,9.517c2.319,1.303,4.165,2.39,5.807,3.419
					c5.395,3.384,10.381,7.05,15.203,10.594l2.164,1.593c18.261,13.442,35.508,26.139,54.994,36.052
					c16.716,8.504,36.114,13.195,56.096,13.57c17.198,0.327,36.27-2.297,60.056-8.27c11.436-2.87,22.957-6.235,34.737-9.719
					c6.951-2.056,15.175-4.499,23.472-7.042c3.847-1.174,7.687-2.42,11.403-3.626c16.355-5.305,31.802-10.316,49.522-10.318
					c0.024,0,0.052,0,0.077,0c20.054,0,39.765,6.557,58.832,12.898c4.637,1.543,9.432,3.138,14.117,4.597
					c3.822,1.189,7.641,2.39,11.458,3.59c3.25,1.023,6.497,2.044,9.741,3.057c17.587,5.491,36.49,11.108,55.556,15
					c46.928,9.598,88.849,12.769,128.168,9.704l0.036,0.461c-39.363,3.074-81.327-0.106-128.296-9.712
					c-19.086-3.897-38.003-9.518-55.601-15.013c-3.244-1.013-6.492-2.034-9.741-3.056c-3.817-1.2-7.636-2.402-11.457-3.591
					c-4.689-1.46-9.486-3.056-14.125-4.598c-19.031-6.33-38.71-12.875-58.687-12.875c-0.025,0-0.05,0-0.076,0
					c-17.647,0.002-33.06,5.002-49.379,10.295c-3.717,1.206-7.56,2.452-11.41,3.628c-8.298,2.543-16.524,4.987-23.475,7.042
					c-11.785,3.486-23.312,6.852-34.757,9.724c-23.827,5.984-42.962,8.608-60.177,8.284c-20.051-0.375-39.518-5.084-56.296-13.62
					c-19.52-9.93-36.782-22.638-55.058-36.092l-2.138-1.573c-4.842-3.559-9.821-7.219-15.201-10.594
					c-1.636-1.025-3.475-2.108-5.787-3.408c-13.583-7.637-30.272-10.819-49.615-9.459c-27.395,1.928-50.56,9.568-72.962,16.957
					c-5.569,1.837-11.328,3.737-17.041,5.509c-3.519,1.093-7.089,2.187-10.702,3.295c-26.384,8.09-56.288,17.257-85.862,31.752
					c-14.623,7.1-29.262,15.595-43.418,23.81c-9.731,5.646-19.793,11.486-29.841,16.873C68.69,572.407,34.233,584.564-2.974,592.035
					C-31.566,597.777-61.248,600.67-91.438,600.67z"/>
			</g>
			<g>
				
					<linearGradient id="SVGID_00000046304772550178683550000011643749585223981716_" gradientUnits="userSpaceOnUse" x1="-109.4151" y1="531.7187" x2="1000.462" y2="531.7187">
					<stop  offset="0" style="stop-color:#3DFFED"/>
					<stop  offset="0.9966" style="stop-color:#CB00DD"/>
				</linearGradient>
				<path style="fill:url(#SVGID_00000046304772550178683550000011643749585223981716_);" d="M-85.853,610.703
					c-7.845,0-15.703-0.219-23.562-0.66l0.025-0.462c74.398,4.186,148.855-11.592,209.684-44.406
					c11.507-6.201,22.997-12.982,34.107-19.54c12.801-7.555,26.039-15.369,39.157-22.193c26.205-13.754,51.497-23.616,75.956-33.155
					c6.642-2.59,12.917-5.037,19.123-7.529c5.734-2.302,11.511-4.771,17.098-7.158c21.882-9.35,44.509-19.019,72.012-22.157
					c19.712-2.251,36.61,0.88,50.227,9.301c2.215,1.37,4.026,2.555,5.699,3.729c5.115,3.595,9.677,7.418,14.688,11.684
					c2.211,1.884,4.402,3.762,6.58,5.629c15.821,13.56,30.765,26.369,47.96,36.947c16.081,9.891,35.323,15.875,55.645,17.305
					c17.668,1.255,37.6-0.693,60.928-5.953c10.32-2.325,21.177-5.219,35.203-9.383c8.515-2.529,16.244-4.941,23.629-7.375
					c4.675-1.535,9.315-3.212,13.802-4.833c15.538-5.614,30.214-10.916,47.255-11.246c19.959-0.417,39.543,6.199,58.479,12.58
					c5.017,1.692,10.207,3.441,15.274,5.011c2.983,0.924,5.967,1.854,8.95,2.784c4.162,1.297,8.323,2.594,12.482,3.875
					c17.641,5.43,36.665,10.966,56.25,14.677c46.535,8.839,88.94,11.671,129.633,8.663l0.034,0.461
					c-40.737,3.014-83.18,0.177-129.754-8.669c-19.606-3.715-38.644-9.255-56.298-14.689c-4.159-1.281-8.322-2.579-12.484-3.876
					c-2.983-0.93-5.967-1.86-8.95-2.784c-5.073-1.573-10.264-3.322-15.285-5.015c-18.897-6.369-38.434-12.942-58.321-12.556
					c-16.966,0.329-31.606,5.619-47.107,11.219c-4.49,1.622-9.133,3.299-13.814,4.837c-7.39,2.436-15.122,4.849-23.642,7.379
					c-14.036,4.168-24.902,7.064-35.234,9.392c-23.372,5.269-43.346,7.221-61.062,5.962c-20.396-1.434-39.71-7.442-55.855-17.372
					c-17.226-10.597-32.182-23.417-48.018-36.99c-2.178-1.867-4.368-3.744-6.579-5.628c-5.001-4.258-9.555-8.075-14.653-11.657
					c-1.666-1.17-3.469-2.35-5.677-3.715c-13.525-8.366-30.324-11.47-49.93-9.236c-27.436,3.131-50.032,12.785-71.883,22.122
					c-5.589,2.389-11.369,4.858-17.108,7.164c-6.207,2.493-12.483,4.94-19.126,7.53c-24.447,9.534-49.726,19.393-75.91,33.135
					c-13.108,6.819-26.339,14.628-39.136,22.181c-11.114,6.56-22.607,13.344-34.124,19.548
					C46.038,594.967-19.361,610.703-85.853,610.703z"/>
			</g>
			<g>
				
					<linearGradient id="SVGID_00000096747317490900985460000016843716402664485818_" gradientUnits="userSpaceOnUse" x1="-109.444" y1="534.624" x2="1000.3788" y2="534.624">
					<stop  offset="0" style="stop-color:#3DFFED"/>
					<stop  offset="0.9966" style="stop-color:#CB00DD"/>
				</linearGradient>
				<path style="fill:url(#SVGID_00000096747317490900985460000016843716402664485818_);" d="M-81.025,620.806
					c-9.488,0-18.962-0.349-28.419-1.053l0.034-0.461c73.031,5.435,147.885-10.345,210.776-44.441
					c13.371-7.24,26.664-15.245,39.519-22.985c11.055-6.658,22.486-13.541,33.734-19.788c22.128-12.392,43.528-22.481,64.223-32.238
					c10.263-4.839,19.956-9.409,29.302-14.057c5.643-2.807,11.326-5.814,16.82-8.723c21.438-11.345,43.605-23.076,71.292-27.424
					c19.993-3.14,37.011-0.084,50.579,9.087c2.104,1.421,3.933,2.742,5.592,4.039c5.13,4.014,9.618,8.324,14.144,12.755
					c3.201,3.136,6.387,6.306,9.469,9.371c13.917,13.844,27.062,26.92,42.48,38.155c15.454,11.261,34.54,18.537,55.195,21.042
					c18.285,2.227,38.5,1.038,61.801-3.636c10.917-2.188,22.585-5.148,35.67-9.049c8.264-2.465,16.266-5.058,23.786-7.708
					c5.301-1.864,10.53-3.954,15.586-5.976c14.929-5.969,29.029-11.607,45.6-12.24c19.934-0.782,39.392,5.88,58.23,12.315
					c5.34,1.824,10.861,3.71,16.251,5.372c2.138,0.66,4.278,1.321,6.418,1.984c4.997,1.545,10.164,3.145,15.248,4.688
					c16.869,5.12,36.825,10.829,56.942,14.354c45.359,7.968,89.468,10.532,131.098,7.621l0.032,0.461
					c-41.669,2.917-85.814,0.349-131.21-7.626c-20.141-3.53-40.115-9.243-56.997-14.367c-5.085-1.544-10.253-3.142-15.25-4.689
					c-2.14-0.662-4.279-1.324-6.417-1.984c-5.397-1.665-10.921-3.552-16.264-5.376c-18.799-6.421-38.228-13.066-58.063-12.29
					c-16.492,0.63-30.557,6.253-45.447,12.207c-5.061,2.023-10.293,4.116-15.604,5.983c-7.527,2.653-15.537,5.248-23.808,7.715
					c-13.099,3.905-24.78,6.869-35.711,9.059c-23.349,4.685-43.611,5.876-61.947,3.641c-20.734-2.514-39.894-9.82-55.412-21.127
					c-15.445-11.255-28.603-24.344-42.533-38.201c-3.081-3.065-6.267-6.234-9.466-9.368c-4.516-4.421-8.994-8.722-14.106-12.72
					c-1.65-1.291-3.471-2.606-5.565-4.021c-13.467-9.103-30.374-12.135-50.248-9.013c-27.611,4.337-49.744,16.049-71.148,27.376
					c-5.498,2.91-11.182,5.917-16.831,8.727c-9.35,4.651-19.046,9.222-29.311,14.062c-20.688,9.753-42.08,19.84-64.195,32.223
					c-11.242,6.243-22.67,13.125-33.721,19.78c-12.859,7.744-26.155,15.75-39.537,22.996
					C46.763,604.981-17.154,620.806-81.025,620.806z"/>
			</g>
			<g>
				
					<linearGradient id="SVGID_00000155119565183040940980000001195081568582329505_" gradientUnits="userSpaceOnUse" x1="-109.4738" y1="537.5438" x2="1000.2966" y2="537.5438">
					<stop  offset="0" style="stop-color:#3DFFED"/>
					<stop  offset="0.9966" style="stop-color:#CB00DD"/>
				</linearGradient>
				<path style="fill:url(#SVGID_00000155119565183040940980000001195081568582329505_);" d="M-77.037,630.953
					c-10.86,0-21.685-0.492-32.436-1.489l0.043-0.461c71.779,6.648,147.021-9.146,211.87-44.474
					c15.824-8.612,31.459-18.26,46.58-27.59c8.752-5.402,17.803-10.986,26.662-16.223c17.034-10.146,33.632-19.251,49.684-28.056
					c14.968-8.21,29.105-15.965,42.291-23.851c5.487-3.282,11.009-6.792,16.349-10.188c21.047-13.383,42.81-27.22,70.766-32.79
					c19.993-3.984,37.605-0.917,50.93,8.872c2.03,1.491,3.823,2.914,5.483,4.349c5.112,4.427,9.522,9.258,13.6,13.828
					c3.815,4.275,7.579,8.607,11.218,12.796c12.402,14.275,24.116,27.757,38.139,39.68c14.837,12.614,33.768,21.181,54.746,24.777
					c18.557,3.189,39.642,2.748,62.675-1.319c11.499-2.028,23.32-4.878,36.136-8.715c8.239-2.466,16.295-5.172,23.943-8.042
					c5.795-2.169,11.477-4.665,16.972-7.08c14.456-6.352,28.11-12.351,44.346-13.27c19.909-1.137,39.336,5.588,58.126,12.092
					c5.613,1.944,11.416,3.953,17.081,5.691l4.423,1.359c5.726,1.76,11.646,3.58,17.477,5.326
					c16.948,5.073,37.048,10.709,57.636,14.032c44.665,7.225,89.266,9.438,132.563,6.576l0.031,0.462
					c-43.332,2.866-87.969,0.649-132.667-6.581c-20.614-3.328-40.733-8.968-57.694-14.046c-5.833-1.746-11.755-3.566-17.48-5.326
					l-4.423-1.359c-5.673-1.741-11.481-3.752-17.097-5.697c-18.748-6.491-38.136-13.215-57.949-12.066
					c-16.154,0.914-29.771,6.897-44.187,13.232c-5.501,2.417-11.188,4.916-16.995,7.09c-7.659,2.874-15.724,5.583-23.974,8.052
					c-12.833,3.842-24.67,6.697-36.188,8.727c-23.087,4.075-44.228,4.519-62.832,1.319c-21.06-3.609-40.067-12.213-54.968-24.88
					c-14.049-11.945-25.774-25.441-38.187-39.728c-3.639-4.188-7.401-8.518-11.215-12.793c-4.068-4.558-8.466-9.377-13.558-13.784
					c-1.649-1.428-3.434-2.842-5.455-4.327c-13.217-9.707-30.703-12.747-50.565-8.79c-27.871,5.553-49.596,19.367-70.608,32.727
					c-5.343,3.397-10.867,6.909-16.361,10.195c-13.193,7.891-27.334,15.647-42.305,23.859c-16.048,8.803-32.642,17.905-49.67,28.048
					c-8.856,5.235-17.905,10.819-26.656,16.219c-15.126,9.334-30.766,18.985-46.602,27.603
					C47.446,615.016-15.302,630.953-77.037,630.953z"/>
			</g>
			<g>
				
					<linearGradient id="SVGID_00000087381728519608343360000008344941972779609515_" gradientUnits="userSpaceOnUse" x1="-109.5018" y1="540.4393" x2="1000.2135" y2="540.4393">
					<stop  offset="0" style="stop-color:#3DFFED"/>
					<stop  offset="0.9966" style="stop-color:#CB00DD"/>
				</linearGradient>
				<path style="fill:url(#SVGID_00000087381728519608343360000008344941972779609515_);" d="M-73.687,641.13
					c-12.037,0-23.993-0.647-35.814-1.956l0.05-0.459c70.619,7.81,146.252-7.992,212.964-44.508
					c19.188-10.491,37.978-22.457,56.149-34.03c5.611-3.573,11.413-7.267,17.082-10.825c10.291-6.501,20.469-12.779,30.313-18.851
					c21.561-13.3,41.927-25.863,60.112-38.664c5.287-3.723,10.607-7.699,15.751-11.544c20.69-15.466,42.084-31.459,70.365-38.267
					c20.275-4.879,38.009-1.888,51.28,8.657c1.966,1.562,3.725,3.085,5.376,4.66c5.052,4.819,9.387,10.217,13.055,14.897
					c4.162,5.315,8.229,10.718,12.161,15.943c11.158,14.826,21.697,28.83,34.603,41.483c14.23,13.951,33.006,23.811,54.299,28.514
					c19.012,4.208,40.392,4.544,63.548,0.998c11.786-1.805,24.101-4.624,36.603-8.38c8.276-2.487,16.385-5.305,24.101-8.376
					c6.192-2.457,12.227-5.353,18.063-8.153c14.083-6.757,27.384-13.14,43.386-14.333c19.941-1.505,39.35,5.311,58.123,11.898
					c5.854,2.053,11.906,4.177,17.814,5.981l2.087,0.638c6.564,2.006,13.352,4.08,20.047,6.057
					c17.053,5.036,37.319,10.604,58.328,13.71c43.76,6.484,88.855,8.349,134.028,5.534l0.029,0.461
					c-45.202,2.815-90.331,0.952-134.124-5.539c-21.037-3.111-41.323-8.683-58.392-13.724c-6.697-1.977-13.484-4.052-20.049-6.058
					l-2.088-0.638c-5.916-1.807-11.973-3.933-17.831-5.988c-18.728-6.57-38.091-13.362-57.936-11.873
					c-15.914,1.188-29.178,7.551-43.22,14.288c-5.843,2.804-11.885,5.703-18.092,8.166c-7.728,3.076-15.85,5.898-24.138,8.388
					c-12.523,3.763-24.859,6.587-36.666,8.395c-23.213,3.555-44.651,3.217-63.718-1.004c-21.377-4.721-40.231-14.622-54.522-28.634
					c-12.931-12.679-23.481-26.696-34.649-41.537c-3.932-5.223-7.996-10.624-12.156-15.935c-3.657-4.668-7.98-10.05-13.01-14.848
					c-1.64-1.563-3.389-3.079-5.344-4.633c-9.173-7.287-25.446-14.691-50.884-8.568c-28.188,6.785-49.544,22.749-70.196,38.187
					c-5.146,3.847-10.468,7.825-15.762,11.552c-18.196,12.81-38.568,25.377-60.134,38.68c-9.843,6.071-20.02,12.35-30.309,18.849
					c-5.669,3.558-11.47,7.252-17.079,10.824c-18.179,11.576-36.976,23.547-56.176,34.046
					C48.107,625.063-13.724,641.13-73.687,641.13z"/>
			</g>
			<g>
				
					<linearGradient id="SVGID_00000011734803177191128560000017417024805581532807_" gradientUnits="userSpaceOnUse" x1="-109.5316" y1="543.3219" x2="1000.1313" y2="543.3219">
					<stop  offset="0" style="stop-color:#3DFFED"/>
					<stop  offset="0.9966" style="stop-color:#CB00DD"/>
				</linearGradient>
				<path style="fill:url(#SVGID_00000011734803177191128560000017417024805581532807_);" d="M-70.833,651.328
					c-13.061,0-25.984-0.808-38.699-2.442l0.06-0.459c69.551,8.939,145.572-6.879,214.059-44.541
					c24.111-13.247,47.396-28.728,69.913-43.698l4.828-3.214c31.883-21.305,61.999-41.428,87.354-62.108
					c5.086-4.148,10.198-8.574,15.144-12.854c20.327-17.593,41.344-35.786,69.973-43.789c14.312-4.056,34.887-5.884,51.628,8.439
					c1.882,1.611,3.655,3.283,5.268,4.971c4.478,4.688,8.24,9.774,12.511,15.968c4.317,6.266,8.493,12.661,12.531,18.844
					c10.107,15.479,19.652,30.099,31.641,43.534c13.634,15.276,32.255,26.427,53.851,32.25c19.422,5.244,41.097,6.361,64.422,3.313
					c12.152-1.585,24.623-4.292,37.069-8.045c8.311-2.507,16.472-5.437,24.259-8.709c6.518-2.733,12.835-6.023,18.944-9.205
					c13.174-6.861,26.797-13.955,42.635-15.417c19.994-1.849,39.414,5.049,58.195,11.725c6.07,2.157,12.345,4.388,18.469,6.25
					l0.381,0.116c7.196,2.189,14.637,4.451,21.988,6.592c16.166,4.71,37.485,10.488,59.022,13.388
					c42.608,5.749,88.194,7.26,135.493,4.492l0.027,0.462c-47.331,2.769-92.946,1.256-135.581-4.495
					c-21.568-2.905-42.908-8.688-59.09-13.402c-7.353-2.142-14.795-4.405-21.992-6.594l-0.38-0.116
					c-6.134-1.865-12.415-4.098-18.489-6.257c-18.734-6.658-38.108-13.542-57.997-11.7c-15.749,1.452-28.726,8.211-42.465,15.366
					c-6.117,3.186-12.442,6.481-18.978,9.221c-7.801,3.279-15.978,6.214-24.304,8.725c-12.469,3.761-24.967,6.473-37.143,8.061
					c-23.389,3.051-45.122,1.934-64.603-3.326c-21.682-5.846-40.382-17.045-54.075-32.388
					c-12.012-13.459-21.567-28.094-31.683-43.588c-4.036-6.182-8.21-12.574-12.524-18.835c-4.258-6.176-8.006-11.245-12.464-15.911
					c-1.603-1.677-3.364-3.338-5.233-4.94c-16.587-14.191-37.001-12.371-51.203-8.346c-28.53,7.977-49.508,26.134-69.796,43.694
					c-4.947,4.282-10.063,8.711-15.154,12.862c-25.373,20.694-55.497,40.823-87.39,62.134l-4.829,3.216
					c-22.526,14.976-45.818,30.461-69.947,43.717C48.756,635.116-12.35,651.328-70.833,651.328z"/>
			</g>
			<g>
				
					<linearGradient id="SVGID_00000060026543491361367420000014589680708703119240_" gradientUnits="userSpaceOnUse" x1="-109.5596" y1="546.1957" x2="1000.0492" y2="546.1957">
					<stop  offset="0" style="stop-color:#3DFFED"/>
					<stop  offset="0.9966" style="stop-color:#CB00DD"/>
				</linearGradient>
				<path style="fill:url(#SVGID_00000060026543491361367420000014589680708703119240_);" d="M-68.368,661.539
					c-13.962,0-27.728-0.974-41.191-2.944l0.067-0.457c68.556,10.026,144.965-5.802,215.152-44.574
					c26.241-14.485,51.733-31.856,73.21-46.937c38.717-27.303,65.65-48.502,87.327-68.732c4.835-4.513,9.698-9.32,14.4-13.968
					c20.001-19.772,40.684-40.218,69.717-49.509c26.3-8.496,42.783-0.218,51.977,8.224c1.824,1.674,3.559,3.451,5.159,5.282
					c4.657,5.33,8.503,11.338,11.965,17.038c4.333,7.136,8.476,14.446,12.482,21.516c9.192,16.222,17.875,31.545,29.096,45.813
					c13.048,16.59,31.516,29.034,53.406,35.986c19.51,6.204,42.091,8.153,65.294,5.63c12.477-1.354,25.106-3.948,37.538-7.711
					c8.359-2.531,16.574-5.574,24.416-9.042c6.792-3,13.337-6.68,19.666-10.239c12.936-7.275,26.313-14.796,42.043-16.519
					c20.078-2.201,39.524,4.799,58.336,11.572c6.263,2.255,12.738,4.587,19.056,6.499c8.025,2.429,15.265,4.611,22.602,6.72
					c16.283,4.68,37.786,10.394,59.715,13.064c41.71,5.087,86.512,6.219,136.958,3.45l0.025,0.462
					c-50.479,2.766-95.302,1.637-137.039-3.453c-21.961-2.674-43.488-8.395-59.787-13.079c-7.339-2.11-14.58-4.293-22.607-6.722
					c-6.329-1.916-12.811-4.25-19.078-6.506c-18.761-6.755-38.163-13.743-58.129-11.547c-15.636,1.711-28.971,9.21-41.867,16.461
					c-6.339,3.564-12.894,7.25-19.706,10.259c-7.859,3.477-16.092,6.525-24.47,9.062c-12.459,3.771-25.117,6.371-37.621,7.728
					c-23.269,2.53-45.914,0.575-65.486-5.649c-21.979-6.98-40.523-19.477-53.628-36.141c-11.243-14.295-20.339-30.346-29.135-45.869
					c-4.005-7.067-8.146-14.374-12.476-21.504c-3.451-5.682-7.284-11.67-11.918-16.975c-1.589-1.817-3.312-3.582-5.123-5.244
					c-9.104-8.359-25.433-16.555-51.523-8.125c-28.928,9.257-49.57,29.663-69.533,49.397c-4.704,4.651-9.569,9.46-14.409,13.977
					c-21.693,20.246-48.642,41.457-87.377,68.773c-21.487,15.089-46.992,32.467-73.252,46.963
					C49.39,645.177-11.135,661.539-68.368,661.539z"/>
			</g>
			<g>
				
					<linearGradient id="SVGID_00000163764141085625285590000005203276874207379334_" gradientUnits="userSpaceOnUse" x1="-109.5876" y1="549.104" x2="999.966" y2="549.104">
					<stop  offset="0" style="stop-color:#3DFFED"/>
					<stop  offset="0.9966" style="stop-color:#CB00DD"/>
				</linearGradient>
				<path style="fill:url(#SVGID_00000163764141085625285590000005203276874207379334_);" d="M-66.216,671.76
					c-14.773,0-29.266-1.142-43.372-3.453l0.074-0.457c67.633,11.084,144.43-4.759,216.246-44.607
					c22.537-12.499,46.481-28.192,73.199-47.978c35.011-26.002,63.071-50.32,85.781-74.341c4.574-4.839,9.176-9.984,13.626-14.959
					c19.679-22,40.027-44.749,69.487-55.35c9.741-3.525,18.982-4.822,27.461-3.859c9.592,1.092,17.958,5.084,24.865,11.867
					c1.773,1.741,3.472,3.622,5.05,5.592c4.566,5.7,8.186,12.072,11.42,18.108c4.254,7.946,8.266,16.12,12.146,24.025
					c7.994,16.287,16.26,33.129,26.839,48.255c12.415,17.874,30.729,31.611,52.961,39.724c19.841,7.246,42.723,9.994,66.17,7.947
					c12.773-1.115,25.559-3.598,38.004-7.378c8.412-2.555,16.68-5.709,24.575-9.376c7.026-3.259,13.76-7.327,20.272-11.261
					c12.737-7.696,25.908-15.652,41.57-17.631c20.158-2.555,39.666,4.557,58.525,11.433c6.439,2.348,13.098,4.776,19.593,6.734
					c7.341,2.211,15.151,4.552,22.836,6.732c16.405,4.653,38.097,10.306,60.409,12.741c40.362,4.413,84.346,5.178,138.422,2.408
					l0.023,0.462c-54.1,2.77-98.108,2.006-138.496-2.411c-22.345-2.439-44.062-8.098-60.485-12.757
					c-7.687-2.18-15.5-4.522-22.843-6.734c-6.508-1.961-13.172-4.392-19.618-6.742c-18.806-6.857-38.249-13.947-58.309-11.409
					c-15.565,1.966-28.693,9.898-41.388,17.568c-6.522,3.941-13.267,8.015-20.316,11.284c-7.914,3.675-16.203,6.838-24.636,9.399
					c-12.475,3.79-25.293,6.278-38.098,7.397c-23.512,2.054-46.465-0.704-66.369-7.973c-22.322-8.145-40.712-21.941-53.181-39.893
					c-10.599-15.155-18.873-32.013-26.875-48.315c-3.878-7.902-7.888-16.071-12.139-24.01c-3.222-6.017-6.83-12.367-11.373-18.038
					c-1.566-1.955-3.252-3.823-5.012-5.55c-9.053-8.891-25.399-17.478-51.846-7.904c-29.35,10.562-49.659,33.266-69.299,55.223
					c-4.452,4.978-9.057,10.125-13.635,14.969c-22.729,24.042-50.808,48.377-85.842,74.395
					c-26.735,19.797-50.696,35.502-73.25,48.011C50.026,655.236-10.049,671.76-66.216,671.76z"/>
			</g>
			<g>
				
					<linearGradient id="SVGID_00000166655091207243330740000013629412695199842955_" gradientUnits="userSpaceOnUse" x1="-109.6174" y1="552.0321" x2="999.8839" y2="552.0321">
					<stop  offset="0" style="stop-color:#3DFFED"/>
					<stop  offset="0.9966" style="stop-color:#CB00DD"/>
				</linearGradient>
				<path style="fill:url(#SVGID_00000166655091207243330740000013629412695199842955_);" d="M-63.788,682.06
					c-15.658,0-30.96-1.347-45.83-4.043l0.083-0.455c34.593,6.272,71.55,5.229,109.842-3.104
					c35.889-7.81,72.056-21.785,107.499-41.537c23.969-13.354,48.594-29.847,73.189-49.018
					c32.858-25.652,61.199-52.551,84.236-79.951c4.31-5.126,8.649-10.568,12.844-15.83c19.352-24.275,39.363-49.376,69.266-61.31
					c21.136-8.457,39.844-5.691,52.674,7.792c1.701,1.775,3.364,3.76,4.941,5.901c4.462,6.062,7.863,12.8,10.873,19.18
					c4.101,8.692,7.914,17.663,11.603,26.339c7.279,17.124,14.807,34.83,24.79,50.892c11.879,19.18,30.038,34.209,52.514,43.462
					c20.145,8.294,43.326,11.842,67.046,10.262c13.048-0.87,25.992-3.24,38.47-7.044c8.473-2.583,16.795-5.85,24.734-9.709
					c7.228-3.511,14.116-7.964,20.777-12.27c12.569-8.125,25.565-16.525,41.194-18.758c20.267-2.903,39.838,4.321,58.757,11.307
					c6.603,2.437,13.429,4.958,20.089,6.956c8.574,2.571,15.78,4.703,23.069,6.743c16.537,4.629,38.426,10.224,61.103,12.421
					c48.969,4.747,98.194,3.355,139.887,1.364l0.022,0.462c-41.708,1.99-90.954,3.383-139.954-1.366
					c-22.712-2.2-44.627-7.801-61.182-12.435c-7.293-2.041-14.5-4.173-23.077-6.746c-6.673-2.002-13.507-4.525-20.116-6.965
					c-18.865-6.964-38.372-14.164-58.532-11.283c-15.528,2.218-28.481,10.591-41.008,18.689
					c-6.673,4.314-13.573,8.774-20.826,12.297c-7.961,3.87-16.305,7.146-24.801,9.736c-12.513,3.815-25.491,6.191-38.575,7.063
					c-23.781,1.584-47.044-1.974-67.253-10.294c-22.567-9.29-40.801-24.383-52.732-43.647
					c-10.001-16.091-17.536-33.815-24.822-50.955c-3.686-8.671-7.498-17.638-11.596-26.322c-3-6.358-6.388-13.073-10.826-19.102
					c-1.565-2.125-3.215-4.095-4.903-5.857c-12.691-13.336-31.221-16.064-52.168-7.681c-29.79,11.888-49.762,36.941-69.076,61.169
					c-4.197,5.265-8.538,10.709-12.851,15.84c-23.057,27.424-51.422,54.346-84.306,80.018
					c-24.613,19.186-49.257,35.691-73.247,49.058C72.55,653.098,36.339,667.09,0.406,674.91
					C-21.49,679.674-42.953,682.06-63.788,682.06z"/>
			</g>
			<g>
				
					<linearGradient id="SVGID_00000156570923083777815010000010885567182565837977_" gradientUnits="userSpaceOnUse" x1="-109.6454" y1="554.9302" x2="999.8007" y2="554.9302">
					<stop  offset="0" style="stop-color:#3DFFED"/>
					<stop  offset="0.9966" style="stop-color:#CB00DD"/>
				</linearGradient>
				<path style="fill:url(#SVGID_00000156570923083777815010000010885567182565837977_);" d="M-61.745,692.339
					c-16.39,0-32.389-1.529-47.9-4.611l0.09-0.453c63.256,12.567,134.793-0.72,206.878-38.419
					c32.412-16.951,63.659-38.187,92.872-63.118c28.357-24.199,53.441-50.696,74.555-78.757c4.046-5.375,8.12-11.074,12.061-16.584
					c19.019-26.596,38.685-54.098,69.046-67.388c21.399-9.366,40.228-6.674,53.02,7.576c6.445,7.177,10.721,15.769,15.158,26.46
					c3.898,9.389,7.465,19.11,10.915,28.511c6.61,18.011,13.444,36.635,22.885,53.671c21.783,39.305,67.764,62.232,119.992,59.778
					c22.522-1.05,43.999-6.687,63.831-16.752c7.403-3.758,14.42-8.593,21.206-13.268c12.425-8.56,25.274-17.412,40.895-19.896
					c20.39-3.245,40.031,4.094,59.021,11.189c6.755,2.524,13.74,5.134,20.552,7.169c28.671,8.563,56.753,16.449,85.099,18.854
					c47.05,3.992,93.712,2.431,141.351,0.322l0.02,0.462c-47.658,2.109-94.333,3.67-141.411-0.323
					c-28.39-2.408-56.497-10.301-85.191-18.871c-6.828-2.04-13.82-4.652-20.582-7.179c-18.933-7.074-38.507-14.389-58.787-11.165
					c-15.518,2.468-28.322,11.289-40.705,19.82c-6.799,4.683-13.829,9.526-21.26,13.298c-19.891,10.096-41.43,15.75-64.018,16.803
					c-52.386,2.424-98.549-20.555-120.419-60.016c-9.458-17.066-16.298-35.708-22.914-53.736
					c-3.448-9.396-7.014-19.112-10.908-28.493c-4.42-10.647-8.676-19.2-15.075-26.329c-17.066-19.009-40.212-12.834-52.49-7.461
					c-30.244,13.239-49.873,40.689-68.856,67.234c-3.942,5.513-8.018,11.213-12.066,16.594
					c-21.135,28.086-46.241,54.609-74.624,78.831c-29.24,24.953-60.516,46.208-92.958,63.175
					C43.027,677.772-11.185,692.339-61.745,692.339z"/>
			</g>
			<g>
				
					<linearGradient id="SVGID_00000070812238561025675580000008165499995675711422_" gradientUnits="userSpaceOnUse" x1="-109.6166" y1="559.8719" x2="999.8034" y2="559.8719">
					<stop  offset="0" style="stop-color:#3DFFED"/>
					<stop  offset="0.9966" style="stop-color:#CB00DD"/>
				</linearGradient>
				<path style="fill:url(#SVGID_00000070812238561025675580000008165499995675711422_);" d="M-65.931,688.448
					c-15.019,0-29.603-1.251-43.686-3.755l0.081-0.455c46.249,8.225,122.709,6.708,224.318-47.204
					c30.549-16.131,59.555-35.369,86.214-57.179c23.896-19.621,45.555-41.027,64.375-63.623c4.425-5.319,8.888-10.983,13.204-16.462
					c19.458-24.698,39.577-50.237,69.438-63.001c21.042-8.999,39.783-6.849,52.771,6.052c7.274,7.226,12.182,16.156,16.023,23.941
					c4.377,8.868,8.379,18.058,12.251,26.945c6.952,15.962,14.141,32.467,23.698,47.52c11.559,18.292,29.319,32.767,51.363,41.86
					c20.461,8.44,44.049,12.152,68.217,10.722c4.656-0.273,9.346-0.736,13.94-1.377c17.25-2.4,33.937-7.37,49.594-14.771
					c7.23-3.418,14.116-7.759,20.775-11.958c12.619-7.956,25.668-16.183,41.245-18.104c5.125-0.628,10.302-0.625,15.822,0.006
					c14.4,1.644,28.518,7.265,42.171,12.7c6.606,2.63,13.437,5.349,20.102,7.525c26.8,8.73,53.098,16.847,80.162,20.232
					c1.162,0.145,2.328,0.281,3.496,0.407c40.089,4.312,83.308,4.826,140.136,1.667l0.025,0.462
					c-56.852,3.161-100.095,2.645-140.211-1.67c-1.17-0.127-2.338-0.263-3.504-0.408c-27.105-3.39-53.425-11.514-80.247-20.252
					c-6.681-2.18-13.518-4.902-20.13-7.534c-13.625-5.424-27.713-11.033-42.052-12.671c-5.486-0.627-10.626-0.629-15.714-0.006
					c-15.474,1.908-28.478,10.107-41.054,18.036c-6.671,4.207-13.569,8.556-20.824,11.984
					c-15.699,7.422-32.431,12.405-49.728,14.812c-4.606,0.641-9.307,1.107-13.976,1.38c-24.235,1.425-47.895-2.291-68.421-10.758
					c-22.131-9.13-39.967-23.667-51.576-42.04c-9.576-15.083-16.772-31.605-23.732-47.582c-3.869-8.883-7.869-18.067-12.242-26.926
					c-3.824-7.749-8.708-16.639-15.933-23.816c-12.848-12.761-31.409-14.875-52.263-5.956
					c-29.753,12.719-49.835,38.211-69.256,62.863c-4.318,5.48-8.783,11.148-13.212,16.472
					c-18.839,22.618-40.52,44.044-64.438,63.684c-26.683,21.83-55.715,41.085-86.291,57.229c-37.731,20.02-75.077,34.371-111,42.656
					C-20.126,685.662-43.513,688.448-65.931,688.448z"/>
			</g>
			<g>
				
					<linearGradient id="SVGID_00000103960527154605469000000000626691574373234075_" gradientUnits="userSpaceOnUse" x1="-109.5867" y1="564.8352" x2="999.8062" y2="564.8352">
					<stop  offset="0" style="stop-color:#3DFFED"/>
					<stop  offset="0.9966" style="stop-color:#CB00DD"/>
				</linearGradient>
				<path style="fill:url(#SVGID_00000103960527154605469000000000626691574373234075_);" d="M-70.446,684.624
					c-13.479,0-26.525-0.986-39.141-2.964l0.072-0.457c63.843,10.01,138.969-5.401,223.306-45.798
					c31.017-14.711,60.144-31.998,86.573-51.384c24.057-17.778,46.138-37.473,65.63-58.536c4.865-5.269,9.778-10.913,14.528-16.371
					c19.837-22.792,40.35-46.361,69.647-58.583c20.686-8.639,39.337-7.03,52.521,4.53c6.09,5.34,11.299,11.945,16.888,21.419
					c4.879,8.269,9.346,16.848,13.665,25.145c7.279,13.982,14.806,28.44,24.434,41.602c11.968,16.363,29.81,29.13,51.596,36.92
					c20.281,7.253,43.643,10.181,67.572,8.47c4.606-0.327,9.259-0.826,13.831-1.483c17.069-2.449,33.692-7.18,49.406-14.062
					c7.015-3.071,13.728-6.917,20.221-10.637c13.446-7.702,26.145-14.977,41.716-16.322c4.988-0.422,10.221-0.233,15.554,0.565
					c14.148,2.114,28.013,7.986,41.421,13.665c6.454,2.733,13.127,5.559,19.645,7.874c26.161,9.257,51.871,17.901,78.768,21.939
					c1.146,0.171,2.295,0.332,3.446,0.486c41.337,5.415,88.077,6.427,138.923,3.012l0.031,0.461
					c-50.876,3.418-97.648,2.404-139.014-3.014c-1.154-0.154-2.304-0.317-3.454-0.488c-26.938-4.044-52.671-12.695-78.854-21.96
					c-6.531-2.319-13.211-5.148-19.671-7.884c-13.382-5.668-27.218-11.529-41.309-13.634c-5.297-0.79-10.494-0.979-15.445-0.561
					c-15.469,1.337-28.126,8.586-41.527,16.263c-6.502,3.725-13.227,7.577-20.264,10.658c-15.753,6.899-32.416,11.641-49.527,14.095
					c-4.582,0.659-9.247,1.16-13.864,1.487c-23.986,1.717-47.419-1.221-67.76-8.494c-21.875-7.823-39.792-20.645-51.815-37.084
					c-9.648-13.19-17.182-27.664-24.47-41.661c-4.317-8.292-8.78-16.865-13.654-25.124c-5.563-9.429-10.743-16-16.795-21.306
					c-13.043-11.437-31.523-13.017-52.037-4.451c-29.198,12.18-49.675,35.707-69.478,58.46c-4.752,5.461-9.667,11.107-14.537,16.382
					c-19.512,21.085-41.615,40.799-65.696,58.594c-26.452,19.402-55.605,36.706-86.647,51.429
					C46.227,668.281-15.618,684.624-70.446,684.624z"/>
			</g>
			<g>
				
					<linearGradient id="SVGID_00000155121336986435745540000006296039823172214425_" gradientUnits="userSpaceOnUse" x1="-109.5569" y1="569.7911" x2="999.8089" y2="569.7911">
					<stop  offset="0" style="stop-color:#3DFFED"/>
					<stop  offset="0.9966" style="stop-color:#CB00DD"/>
				</linearGradient>
				<path style="fill:url(#SVGID_00000155121336986435745540000006296039823172214425_);" d="M-74.916,680.913
					c-11.888,0-23.407-0.764-34.641-2.287l0.061-0.459c34.074,4.619,70.803,2.243,112.295-7.264
					c32.819-7.52,68.801-19.664,110.004-37.128c32.988-13.982,61.423-28.894,86.93-45.589c23.926-15.659,46.429-33.642,66.886-53.45
					c5.378-5.224,10.573-10.61,16.072-16.311c20.145-20.883,40.975-42.477,69.636-54.134c26.057-10.617,42.807-4.224,52.268,3.007
					c6.44,4.922,12.081,10.927,17.752,18.896c5.392,7.577,10.333,15.458,15.112,23.081c7.584,12.096,15.426,24.604,25.136,35.951
					c12.526,14.635,29.959,25.398,51.814,31.989c20.09,6.06,43.237,8.204,66.945,6.207c4.567-0.381,9.184-0.916,13.723-1.59
					c16.878-2.496,33.437-6.987,49.218-13.351c6.745-2.72,13.235-6.069,19.511-9.308c13.746-7.094,26.73-13.795,42.345-14.549
					c4.925-0.221,10.071,0.154,15.285,1.124c13.896,2.585,27.507,8.71,40.67,14.633c6.302,2.835,12.818,5.768,19.187,8.219
					c24.502,9.388,50.66,18.947,77.375,23.647c1.13,0.197,2.262,0.385,3.397,0.565c42.569,6.608,90.187,8.114,137.708,4.357
					l0.036,0.461c-47.551,3.76-95.209,2.252-137.815-4.361c-1.138-0.18-2.273-0.37-3.405-0.566
					c-26.755-4.707-52.937-14.274-77.461-23.67c-6.381-2.456-12.903-5.391-19.21-8.228c-13.138-5.913-26.724-12.026-40.565-14.6
					c-5.181-0.964-10.292-1.34-15.178-1.116c-15.514,0.748-28.454,7.426-42.154,14.497c-6.286,3.245-12.784,6.598-19.55,9.325
					c-15.815,6.378-32.409,10.879-49.323,13.38c-4.55,0.676-9.177,1.211-13.754,1.593c-23.763,2.003-46.97-0.149-67.115-6.224
					c-21.942-6.617-39.448-17.428-52.032-32.133c-9.733-11.372-17.584-23.894-25.177-36.005
					c-4.776-7.616-9.714-15.492-15.098-23.059c-5.643-7.929-11.253-13.903-17.655-18.796c-9.368-7.158-25.96-13.477-51.814-2.945
					c-28.57,11.621-49.367,33.179-69.477,54.027c-5.503,5.704-10.7,11.092-16.084,16.323c-20.477,19.828-43.004,37.83-66.955,53.504
					c-25.529,16.71-53.989,31.635-87.002,45.628c-41.228,17.473-77.235,29.626-110.08,37.152
					C-24.966,677.74-50.697,680.913-74.916,680.913z"/>
			</g>
			<g>
				
					<linearGradient id="SVGID_00000108271746030562082740000007086812284859571356_" gradientUnits="userSpaceOnUse" x1="-109.528" y1="574.799" x2="999.8116" y2="574.799">
					<stop  offset="0" style="stop-color:#3DFFED"/>
					<stop  offset="0.9966" style="stop-color:#CB00DD"/>
				</linearGradient>
				<path style="fill:url(#SVGID_00000108271746030562082740000007086812284859571356_);" d="M-80.023,677.225
					c-9.891,0-19.733-0.517-29.505-1.633l0.052-0.459c74.364,8.49,153.218-17.736,221.289-42.986
					c34.681-12.864,62.418-25.509,87.289-39.793c23.993-13.782,46.918-30.054,68.141-48.365c5.985-5.186,11.773-10.579,17.9-16.288
					c20.359-18.967,41.411-38.581,69.34-49.647c14.132-5.615,34.631-9.913,52.014,1.483c6.851,4.491,12.94,9.846,18.614,16.371
					c5.907,6.793,11.333,13.888,16.58,20.75c7.877,10.301,16.022,20.952,25.818,30.565c12.907,12.664,30.412,21.769,52.032,27.06
					c19.889,4.867,42.823,6.232,66.321,3.945c4.514-0.433,9.096-1.004,13.615-1.696c16.667-2.538,33.163-6.791,49.032-12.64
					c6.409-2.362,12.611-5.217,18.608-7.978c14.115-6.499,27.447-12.637,43.164-12.775c0.107-0.001,0.214-0.001,0.321-0.001
					c4.769,0,9.711,0.566,14.694,1.683c13.643,3.057,27.001,9.436,39.918,15.604c6.15,2.937,12.51,5.974,18.731,8.561
					c23.895,9.884,49.445,19.984,75.983,25.353c1.113,0.223,2.229,0.437,3.347,0.644c43.742,7.884,90.938,9.856,136.493,5.702
					l0.042,0.461c-45.594,4.158-92.835,2.185-136.616-5.708c-1.123-0.208-2.241-0.423-3.357-0.646
					c-26.578-5.378-52.152-15.486-76.069-25.379c-6.232-2.591-12.597-5.631-18.753-8.571c-12.894-6.157-26.228-12.524-39.82-15.57
					c-5.061-1.135-10.058-1.708-14.912-1.671c-15.617,0.135-28.906,6.254-42.974,12.732c-6.005,2.765-12.215,5.623-18.641,7.992
					c-15.898,5.86-32.425,10.121-49.121,12.664c-4.529,0.693-9.118,1.265-13.641,1.7c-23.548,2.292-46.536,0.923-66.475-3.957
					c-21.702-5.311-39.28-14.456-52.246-27.179c-9.821-9.637-17.975-20.301-25.863-30.615c-5.242-6.856-10.664-13.945-16.561-20.728
					c-5.646-6.492-11.703-11.821-18.518-16.288c-17.219-11.288-37.56-7.013-51.591-1.44c-27.848,11.034-48.868,30.617-69.196,49.556
					c-6.131,5.712-11.922,11.107-17.913,16.299c-21.245,18.33-44.195,34.62-68.213,48.417
					c-24.894,14.297-52.654,26.953-87.359,39.826C52.792,654.533-14.542,677.225-80.023,677.225z"/>
			</g>
			<g>
				
					<linearGradient id="SVGID_00000065056403705430283610000015576479342161649829_" gradientUnits="userSpaceOnUse" x1="-109.4982" y1="579.8293" x2="999.8143" y2="579.8293">
					<stop  offset="0" style="stop-color:#3DFFED"/>
					<stop  offset="0.9966" style="stop-color:#CB00DD"/>
				</linearGradient>
				<path style="fill:url(#SVGID_00000065056403705430283610000015576479342161649829_);" d="M-85.621,673.631
					c-8.015,0-15.977-0.341-23.877-1.073l0.043-0.461c69.637,6.451,144.66-17.471,210.853-38.577
					c3.156-1.006,6.298-2.008,9.426-3.002c36.767-11.689,63.799-22.175,87.648-33.998c24.07-11.934,47.418-26.495,69.397-43.279
					c6.71-5.152,13.208-10.569,20.088-16.303c20.454-17.05,41.605-34.681,68.684-45.124c13.887-5.371,34.141-9.737,51.759-0.039
					c7.461,4.106,13.831,8.635,19.474,13.847c6.408,5.916,12.318,12.135,18.033,18.148c8.171,8.596,16.619,17.484,26.517,25.451
					c25.578,20.588,68.571,29.266,117.949,23.815c4.48-0.49,9.025-1.097,13.508-1.805c16.431-2.576,32.865-6.59,48.843-11.929
					c6.003-2.003,11.842-4.379,17.49-6.676c14.563-5.922,28.299-11.511,44.201-10.973c4.765,0.163,9.726,0.917,14.745,2.241
					c13.394,3.532,26.501,10.169,39.178,16.585c5.995,3.035,12.194,6.173,18.263,8.892c23.291,10.376,48.237,21.012,74.59,27.061
					c1.095,0.249,2.194,0.492,3.298,0.723c43.519,9.078,91.561,11.581,135.278,7.046l0.047,0.461
					c-43.759,4.54-91.854,2.033-135.419-7.053c-1.107-0.232-2.208-0.475-3.307-0.724c-26.394-6.059-51.363-16.705-74.676-27.09
					c-6.079-2.723-12.283-5.864-18.284-8.901c-12.654-6.407-25.74-13.031-39.086-16.55c-4.986-1.316-9.912-2.065-14.643-2.227
					c-15.784-0.539-29.495,5.036-44.011,10.939c-5.654,2.299-11.502,4.677-17.518,6.686c-16.003,5.347-32.461,9.367-48.917,11.947
					c-4.49,0.709-9.042,1.317-13.53,1.806c-9.686,1.07-19.136,1.597-28.25,1.597c-37.464,0.002-69.389-8.89-90.041-25.511
					c-9.921-7.985-18.38-16.885-26.561-25.491c-5.71-6.008-11.615-12.221-18.012-18.127c-5.616-5.185-11.955-9.694-19.382-13.782
					c-17.462-9.611-37.574-5.269-51.371,0.066c-27.007,10.414-48.129,28.021-68.554,45.047
					c-6.883,5.737-13.385,11.157-20.103,16.314c-22.003,16.803-45.377,31.38-69.472,43.326
					c-23.871,11.835-50.923,22.329-87.714,34.025c-3.128,0.995-6.27,1.996-9.425,3.002
					C42.807,652.687-22.878,673.631-85.621,673.631z"/>
			</g>
			<g>
				
					<linearGradient id="SVGID_00000126299622174512574550000017312155780188557985_" gradientUnits="userSpaceOnUse" x1="-109.4684" y1="584.9011" x2="999.8179" y2="584.9011">
					<stop  offset="0" style="stop-color:#3DFFED"/>
					<stop  offset="0.9966" style="stop-color:#CB00DD"/>
				</linearGradient>
				<path style="fill:url(#SVGID_00000126299622174512574550000017312155780188557985_);" d="M-90.69,670.174
					c-6.283,0-12.538-0.209-18.778-0.651l0.033-0.461c60.137,4.253,122.479-13.219,182.77-30.124
					c12.609-3.536,24.52-6.875,36.502-10.048c33.716-8.927,61.585-17.14,88.009-28.204c24.166-10.119,47.937-22.969,70.652-38.194
					c7.593-5.12,14.957-10.584,22.754-16.369c20.392-15.129,41.478-30.773,67.549-40.549c19.564-7.36,37.371-7.898,51.503-1.561
					c8.356,3.749,14.816,7.347,20.331,11.321c6.87,4.952,13.248,10.202,19.416,15.279c8.482,6.982,17.252,14.202,27.284,20.604
					c26.385,16.838,68.131,22.74,117.55,16.623c4.424-0.542,8.932-1.184,13.4-1.911c16.15-2.608,32.519-6.382,48.656-11.217
					c5.49-1.644,10.863-3.544,16.062-5.382c15.124-5.35,29.406-10.412,45.549-9.163c4.703,0.361,9.573,1.303,14.475,2.8
					c13.143,4.01,25.999,10.903,38.433,17.57c5.84,3.132,11.88,6.37,17.798,9.219c22.693,10.863,47.038,22.033,73.197,28.769
					c1.078,0.275,2.161,0.544,3.248,0.8c43.949,10.36,91.561,13.34,134.062,8.392l0.054,0.459
					c-42.553,4.956-90.221,1.972-134.223-8.401c-1.089-0.256-2.175-0.527-3.256-0.802c-26.2-6.746-50.568-17.927-73.283-28.8
					c-5.927-2.854-11.972-6.095-17.816-9.229c-12.414-6.656-25.25-13.539-38.35-17.535c-4.869-1.487-9.706-2.423-14.376-2.782
					c-16.043-1.228-30.281,3.806-45.359,9.138c-5.203,1.841-10.582,3.743-16.083,5.39c-16.155,4.841-32.545,8.621-48.714,11.232
					c-4.473,0.727-8.987,1.371-13.418,1.913c-49.526,6.131-91.38,0.203-117.855-16.692c-10.055-6.417-18.837-13.646-27.329-20.636
					c-6.162-5.073-12.534-10.318-19.393-15.261c-5.488-3.956-11.923-7.538-20.25-11.275c-14.016-6.286-31.705-5.744-51.151,1.573
					c-26.011,9.752-47.07,25.377-67.436,40.487c-7.8,5.788-15.169,11.254-22.772,16.381c-22.739,15.241-46.537,28.106-70.73,38.236
					c-26.449,11.075-54.335,19.292-88.069,28.225c-11.98,3.171-23.888,6.51-36.496,10.046
					C19.382,654.546-36.353,670.174-90.69,670.174z"/>
			</g>
			<g>
				
					<linearGradient id="SVGID_00000119837726383283764130000017398186140130289307_" gradientUnits="userSpaceOnUse" x1="-109.4386" y1="589.9754" x2="999.8206" y2="589.9754">
					<stop  offset="0" style="stop-color:#3DFFED"/>
					<stop  offset="0.9966" style="stop-color:#CB00DD"/>
				</linearGradient>
				<path style="fill:url(#SVGID_00000119837726383283764130000017398186140130289307_);" d="M-96.485,666.8
					c-4.332,0-8.647-0.1-12.953-0.311l0.023-0.462c52.749,2.587,107.538-11.375,160.529-24.872
					c20.006-5.096,38.904-9.91,57.734-13.893c30.926-6.541,60.137-12.719,88.369-22.408c24.293-8.336,48.486-19.475,71.906-33.108
					c8.683-5.09,17.117-10.627,26.047-16.489c20.12-13.209,40.925-26.868,65.786-35.922c19.219-7.022,36.937-8.087,51.245-3.081
					c8.323,2.914,15.11,5.524,21.186,8.797c7.266,3.913,14.069,8.109,20.649,12.167c8.838,5.45,17.976,11.085,28.204,15.999
					c26.642,12.801,68.248,16.152,117.153,9.431c4.384-0.596,8.856-1.274,13.292-2.017c15.758-2.62,32.066-6.156,48.469-10.507
					c4.845-1.284,9.62-2.729,14.236-4.125c15.833-4.789,30.787-9.315,47.292-7.317c4.637,0.561,9.417,1.691,14.205,3.358
					c12.897,4.491,25.504,11.646,37.696,18.564c5.685,3.225,11.563,6.561,17.328,9.539c21.136,10.851,45.859,23.049,71.803,30.476
					c1.061,0.3,2.128,0.597,3.199,0.879c44.18,11.652,91.36,15.111,132.847,9.736l0.06,0.459
					c-41.547,5.382-88.789,1.919-133.024-9.747c-1.075-0.284-2.143-0.581-3.208-0.883c-25.985-7.437-50.732-19.648-71.889-30.509
					c-5.773-2.982-11.656-6.32-17.343-9.547c-12.175-6.909-24.763-14.053-37.62-18.529c-4.757-1.657-9.505-2.78-14.109-3.337
					c-16.409-1.988-31.317,2.526-47.102,7.301c-4.621,1.398-9.399,2.844-14.251,4.13c-16.417,4.354-32.74,7.893-48.512,10.516
					c-4.439,0.743-8.916,1.423-13.305,2.02c-23.452,3.222-45.176,4.18-64.577,2.843c-21.075-1.451-38.852-5.594-52.84-12.315
					c-10.249-4.925-19.398-10.567-28.245-16.023c-6.575-4.055-13.372-8.247-20.625-12.154c-6.049-3.258-12.818-5.86-21.121-8.766
					c-14.203-4.973-31.816-3.907-50.932,3.079c-24.811,9.035-45.593,22.679-65.691,35.873c-8.935,5.865-17.374,11.405-26.068,16.501
					c-23.447,13.649-47.668,24.8-71.99,33.145c-28.259,9.697-57.483,15.879-88.423,22.423c-18.822,3.982-37.714,8.793-57.716,13.888
					C2.527,654.007-47.7,666.8-96.485,666.8z"/>
			</g>
			<g>
				
					<linearGradient id="SVGID_00000021807675802324699970000000980257381744218294_" gradientUnits="userSpaceOnUse" x1="-109.4088" y1="595.0539" x2="999.8233" y2="595.0539">
					<stop  offset="0" style="stop-color:#3DFFED"/>
					<stop  offset="0.9966" style="stop-color:#CB00DD"/>
				</linearGradient>
				<path style="fill:url(#SVGID_00000021807675802324699970000000980257381744218294_);" d="M-102.332,663.548
					c-2.363,0-4.722-0.031-7.077-0.094l0.013-0.462c46.754,1.255,95.352-10.303,142.345-21.479
					c26.007-6.185,50.572-12.028,74.912-15.877c4.141-0.655,8.255-1.295,12.345-1.931c26.603-4.14,51.731-8.051,76.383-14.68
					c24.45-6.576,49.065-16.005,73.163-28.023c10.059-5.056,19.848-10.706,30.213-16.688c19.556-11.287,39.78-22.958,63.149-31.214
					c18.872-6.695,36.5-8.286,50.985-4.601l2.881,0.73c7.167,1.811,13.358,3.375,19.158,5.543c7.536,2.818,14.67,5.882,21.57,8.845
					c9.288,3.989,18.893,8.113,29.432,11.603c26.979,8.934,67.354,9.706,116.762,2.236c4.298-0.643,8.733-1.359,13.185-2.124
					c15.054-2.577,31.298-5.872,48.281-9.795c4.031-0.93,8.032-1.945,11.9-2.926c16.73-4.242,32.538-8.247,49.547-5.414
					c4.579,0.764,9.268,2.082,13.935,3.918c12.65,4.975,25.009,12.392,36.963,19.566c5.527,3.317,11.243,6.746,16.852,9.848
					c20.579,11.311,44.69,24.059,70.411,32.183c1.045,0.326,2.094,0.649,3.15,0.958c43.611,12.765,91.59,16.803,131.632,11.081
					l0.065,0.457c-40.106,5.734-88.153,1.688-131.827-11.094c-1.059-0.311-2.111-0.633-3.159-0.961
					c-25.763-8.136-49.898-20.897-70.496-32.22c-5.617-3.105-11.337-6.538-16.867-9.856c-11.936-7.164-24.279-14.571-36.894-19.533
					c-4.636-1.824-9.294-3.133-13.841-3.891c-16.916-2.821-32.674,1.176-49.357,5.406c-3.871,0.981-7.875,1.996-11.909,2.927
					c-16.992,3.925-33.245,7.222-48.308,9.8c-4.454,0.768-8.893,1.483-13.194,2.126c-49.479,7.481-89.929,6.701-116.976-2.255
					c-10.559-3.497-20.173-7.625-29.47-11.617c-6.895-2.961-14.024-6.022-21.551-8.836c-5.775-2.161-11.954-3.721-19.108-5.529
					l-2.882-0.73c-14.394-3.662-31.932-2.075-50.716,4.589c-23.33,8.243-43.534,19.903-63.073,31.179
					c-10.371,5.985-20.166,11.638-30.237,16.701c-24.126,12.033-48.77,21.472-73.25,28.056
					c-24.676,6.637-49.816,10.549-76.432,14.691c-4.091,0.636-8.205,1.276-12.345,1.931c-24.322,3.846-48.879,9.686-74.877,15.87
					C-11.602,652.583-57.703,663.548-102.332,663.548z"/>
			</g>
			<g>
				
					<linearGradient id="SVGID_00000121262088925965123530000014500135521367760025_" gradientUnits="userSpaceOnUse" x1="-109.3789" y1="597.2516" x2="999.8269" y2="597.2516">
					<stop  offset="0" style="stop-color:#3DFFED"/>
					<stop  offset="0.9966" style="stop-color:#CB00DD"/>
				</linearGradient>
				<path style="fill:url(#SVGID_00000121262088925965123530000014500135521367760025_);" d="M-108.194,660.422
					c-0.396,0-0.789-0.001-1.185-0.003l0.002-0.462c0.393,0.002,0.79,0.003,1.183,0.003c41.413,0,84.376-9.773,125.941-19.227
					c29.612-6.735,60.232-13.7,89.127-16.724c7.229-0.756,14.464-1.45,21.461-2.121c23.442-2.247,45.584-4.37,67.63-8.695
					c24.64-4.834,49.677-12.552,74.416-22.938c11.841-5.015,23.391-10.835,35.618-16.997c18.579-9.362,37.79-19.043,59.273-26.398
					c18.533-6.372,36.075-8.486,50.725-6.119c2.784,0.45,5.46,0.841,8.048,1.219c5.232,0.764,10.173,1.486,14.842,2.533
					c7.556,1.694,14.794,3.569,21.795,5.382c9.957,2.58,20.254,5.246,31.36,7.349c27.07,5.127,65.137,3.505,116.37-4.962
					c4.262-0.698,8.662-1.449,13.076-2.232c16.115-2.836,32.64-6.042,48.096-9.083c2.989-0.587,5.98-1.208,8.871-1.807
					c17.889-3.71,34.785-7.214,52.495-3.426c4.523,0.967,9.12,2.473,13.664,4.476c12.406,5.465,24.521,13.149,36.238,20.581
					c5.367,3.403,10.916,6.923,16.368,10.146c20.034,11.77,43.541,25.067,69.019,33.889c1.028,0.352,2.06,0.702,3.102,1.037
					c43.567,14.054,91.104,18.582,130.415,12.424l0.072,0.457c-39.385,6.168-86.995,1.635-130.63-12.44
					c-1.043-0.337-2.079-0.687-3.11-1.041c-25.518-8.836-49.049-22.146-69.103-33.928c-5.458-3.226-11.011-6.748-16.38-10.154
					c-11.703-7.423-23.802-15.098-36.177-20.549c-4.516-1.989-9.083-3.486-13.576-4.447c-17.612-3.767-34.463-0.273-52.303,3.427
					c-2.893,0.6-5.885,1.221-8.876,1.808c-15.458,3.042-31.985,6.248-48.104,9.085c-4.416,0.783-8.818,1.535-13.082,2.234
					c-51.287,8.474-89.405,10.096-116.532,4.96c-11.12-2.106-21.424-4.775-31.39-7.356c-6.996-1.812-14.231-3.686-21.78-5.378
					c-4.652-1.043-9.585-1.764-14.808-2.527c-2.59-0.378-5.268-0.77-8.055-1.219c-14.578-2.357-32.042-0.246-50.501,6.099
					c-21.453,7.345-40.65,17.019-59.214,26.374c-12.235,6.166-23.792,11.99-35.647,17.011
					c-24.769,10.399-49.836,18.125-74.508,22.965c-22.067,4.329-44.22,6.453-67.674,8.702c-6.997,0.671-14.231,1.365-21.457,2.121
					c-28.868,3.019-59.474,9.982-89.073,16.714C-23.739,650.642-66.731,660.422-108.194,660.422z"/>
			</g>
			<g>
				
					<linearGradient id="SVGID_00000035499244861700648680000010781094760040965285_" gradientUnits="userSpaceOnUse" x1="-109.3573" y1="594.5163" x2="999.8297" y2="594.5163">
					<stop  offset="0" style="stop-color:#3DFFED"/>
					<stop  offset="0.9966" style="stop-color:#CB00DD"/>
				</linearGradient>
				<path style="fill:url(#SVGID_00000035499244861700648680000010781094760040965285_);" d="M-109.348,657.385l-0.009-0.462
					c37.542-0.676,76.488-9.325,114.153-17.689c33.605-7.464,68.355-15.181,101.091-16.851c9.548-0.487,19.064-0.809,28.266-1.121
					c21.125-0.715,41.079-1.391,61.185-3.898c24.867-3.101,50.327-9.107,75.672-17.853c14.231-4.957,28.149-11.045,42.883-17.49
					c16.976-7.426,34.529-15.103,53.536-21.401c18.19-6.051,35.638-8.695,50.463-7.633c4.095,0.292,7.965,0.44,11.707,0.583
					c4.196,0.161,8.159,0.312,12.037,0.65c6.914,0.604,13.629,1.3,20.122,1.972c11.747,1.217,22.842,2.366,35.182,3.041
					c32.466,1.785,74.934-4.796,115.981-12.164c4.303-0.766,8.625-1.547,12.969-2.339c13.975-2.531,31.368-5.681,47.909-8.371
					c1.635-0.266,3.262-0.534,4.88-0.801c19.411-3.206,37.746-6.234,56.402-1.329c4.47,1.177,8.977,2.87,13.395,5.036
					c12.167,5.96,24.041,13.916,35.525,21.611c5.203,3.486,10.582,7.09,15.873,10.427c19.493,12.228,42.402,26.072,67.626,35.598
					c1.011,0.378,2.028,0.752,3.052,1.116c43.431,15.353,90.521,20.371,129.2,13.768l0.078,0.455
					c-38.754,6.619-85.929,1.592-129.431-13.788c-1.028-0.363-2.047-0.739-3.061-1.118c-25.265-9.541-48.198-23.398-67.71-35.638
					c-5.296-3.341-10.678-6.948-15.883-10.435c-11.471-7.686-23.332-15.634-35.471-21.579c-4.391-2.152-8.868-3.835-13.309-5.003
					c-18.562-4.881-36.85-1.861-56.21,1.337c-1.619,0.267-3.245,0.536-4.881,0.802c-16.536,2.689-33.927,5.839-47.9,8.37
					c-4.344,0.792-8.667,1.573-12.97,2.339c-41.075,7.373-83.568,13.943-116.088,12.171c-12.352-0.677-23.452-1.826-35.205-3.043
					c-6.492-0.673-13.204-1.368-20.114-1.972c-3.867-0.338-7.825-0.489-12.015-0.649c-3.746-0.144-7.619-0.291-11.721-0.584
					c-14.758-1.049-32.15,1.58-50.285,7.612c-18.986,6.291-36.53,13.964-53.496,21.385c-14.743,6.448-28.669,12.54-42.917,17.503
					c-25.376,8.755-50.867,14.769-75.766,17.874c-20.127,2.51-40.09,3.187-61.227,3.902c-9.201,0.312-18.714,0.634-28.258,1.121
					c-32.697,1.668-67.428,9.38-101.014,16.839C-32.791,648.055-71.761,656.708-109.348,657.385z"/>
			</g>
			<g>
				
					<linearGradient id="SVGID_00000023258264933065884880000003133860867824880034_" gradientUnits="userSpaceOnUse" x1="-109.3374" y1="591.6061" x2="999.8333" y2="591.6061">
					<stop  offset="0" style="stop-color:#3DFFED"/>
					<stop  offset="0.9966" style="stop-color:#CB00DD"/>
				</linearGradient>
				<path style="fill:url(#SVGID_00000023258264933065884880000003133860867824880034_);" d="M-109.319,654.35l-0.018-0.463
					c33.545-1.365,68.294-9.119,101.899-16.618c37.356-8.336,75.986-16.933,112.34-16.512c9.781,0.119,19.53,0.405,28.959,0.681
					c20.953,0.615,40.744,1.196,60.852,0.096c25.133-1.371,51.014-5.667,76.927-12.767c17.577-4.868,34.824-11.397,53.083-18.311
					c14.385-5.446,29.259-11.077,44.864-16.074c16.834-5.41,34.068-7.594,50.185-9.147c7.118-0.685,13.664-0.907,19.996-1.121
					c1.555-0.052,3.093-0.104,4.619-0.163c3.534-0.135,7.009-0.262,10.448-0.387c15.771-0.575,30.668-1.118,47.007-2.318
					c27.222-1.999,60.796-8.606,96.342-15.601c6.332-1.246,12.754-2.509,19.249-3.769c4.26-0.821,8.547-1.639,12.86-2.447
					c17.751-3.307,33.361-5.812,47.722-7.659c21.206-2.721,41.234-5.292,61.202,0.976c4.419,1.387,8.834,3.269,13.123,5.593
					c11.934,6.462,23.572,14.697,34.828,22.661c5.033,3.561,10.237,7.244,15.36,10.689c23.517,15.734,43.78,28.099,66.234,37.304
					c0.994,0.404,1.993,0.806,3.002,1.194c42.585,16.419,90.431,22.068,127.984,15.111l0.085,0.455
					c-37.638,6.97-85.576,1.313-128.235-15.135c-1.012-0.39-2.014-0.792-3.01-1.198c-22.491-9.22-42.777-21.598-66.317-37.348
					c-5.129-3.448-10.335-7.132-15.37-10.695c-11.245-7.957-22.872-16.183-34.781-22.633c-4.263-2.31-8.651-4.18-13.042-5.558
					c-19.869-6.237-39.85-3.672-61.003-0.958c-14.353,1.845-29.954,4.349-47.697,7.655c-4.311,0.807-8.598,1.624-12.858,2.445
					c-6.494,1.26-12.916,2.524-19.247,3.77c-35.56,6.997-69.148,13.607-96.397,15.607c-16.348,1.201-31.249,1.744-47.024,2.32
					c-3.439,0.125-6.913,0.252-10.447,0.387c-1.527,0.058-3.066,0.11-4.622,0.163c-6.324,0.214-12.863,0.435-19.966,1.119
					c-16.091,1.551-33.296,3.729-50.089,9.127c-15.594,4.992-30.462,10.622-44.841,16.066
					c-18.269,6.917-35.526,13.451-53.123,18.324c-25.944,7.109-51.859,11.41-77.024,12.784c-20.126,1.099-39.927,0.519-60.89-0.096
					c-9.427-0.276-19.174-0.562-28.951-0.681c-36.328-0.455-74.904,8.171-112.233,16.5
					C-40.963,645.225-75.732,652.984-109.319,654.35z"/>
			</g>
			<g>
				
					<linearGradient id="SVGID_00000168811306404339487170000009300447290901749946_" gradientUnits="userSpaceOnUse" x1="-109.3175" y1="588.4962" x2="999.836" y2="588.4962">
					<stop  offset="0" style="stop-color:#3DFFED"/>
					<stop  offset="0.9966" style="stop-color:#CB00DD"/>
				</linearGradient>
				<path style="fill:url(#SVGID_00000168811306404339487170000009300447290901749946_);" d="M-109.289,651.314l-0.029-0.461
					c30.682-1.952,62.418-9.014,93.107-15.845c39.934-8.888,81.23-18.075,120.123-15.876c12.7,0.719,25.304,1.898,37.494,3.037
					c18.079,1.691,35.157,3.288,52.68,3.538c25.436,0.361,51.737-2.223,78.182-7.684c22.583-4.718,44.831-12.063,68.385-19.84
					c10.074-3.327,20.491-6.766,31.09-10.041c17.486-5.42,34.757-9.107,49.945-10.659c6.424-0.657,12.432-1.658,18.243-2.627
					c2.483-0.414,4.828-0.805,7.209-1.172c20.146-3.101,39.085-6.413,59.604-10.423c16.539-3.233,34.888-7.716,54.313-12.463
					c19.45-4.752,39.561-9.667,60.885-14.117c4.389-0.911,8.68-1.769,12.753-2.553c16.748-3.21,32.741-5.548,47.535-6.948
					c20.953-1.978,41.392-3.154,61.119,4.082c4.361,1.598,8.686,3.667,12.854,6.15c11.699,6.969,23.1,15.486,34.127,23.722
					c4.865,3.634,9.896,7.392,14.853,10.94c22.867,16.301,42.645,29.173,64.841,39.011c0.976,0.431,1.96,0.858,2.953,1.274
					c42.315,17.718,89.704,23.869,126.768,16.455l0.09,0.453c-37.149,7.432-84.639,1.271-127.038-16.482
					c-0.995-0.416-1.983-0.845-2.962-1.277c-22.232-9.854-42.032-22.74-64.923-39.058c-4.961-3.55-9.994-7.31-14.86-10.945
					c-11.018-8.229-22.409-16.738-34.088-23.695c-4.143-2.469-8.443-4.525-12.776-6.114c-19.637-7.2-40.019-6.027-60.917-4.055
					c-14.78,1.398-30.758,3.734-47.492,6.94c-4.07,0.783-8.359,1.642-12.746,2.553c-21.316,4.448-41.424,9.361-60.869,14.112
					c-19.431,4.748-37.785,9.233-54.335,12.468c-20.524,4.012-39.47,7.325-59.622,10.427c-2.378,0.367-4.722,0.757-7.203,1.171
					c-5.818,0.969-11.833,1.972-18.272,2.631c-15.158,1.549-32.398,5.229-49.855,10.641c-10.595,3.273-21.01,6.712-31.082,10.038
					c-23.566,7.781-45.826,15.131-68.435,19.854c-26.479,5.468-52.803,8.062-78.283,7.693c-17.54-0.251-34.627-1.849-52.716-3.54
					c-12.185-1.14-24.785-2.318-37.476-3.036c-38.846-2.203-80.093,6.984-119.998,15.865
					C-46.817,642.294-78.569,649.361-109.289,651.314z"/>
			</g>
			<g>
				
					<linearGradient id="SVGID_00000152226064390895136790000001424088673316048530_" gradientUnits="userSpaceOnUse" x1="-109.2986" y1="585.1543" x2="999.8396" y2="585.1543">
					<stop  offset="0" style="stop-color:#3DFFED"/>
					<stop  offset="0.9966" style="stop-color:#CB00DD"/>
				</linearGradient>
				<path style="fill:url(#SVGID_00000152226064390895136790000001424088673316048530_);" d="M-109.259,648.279l-0.04-0.461
					c27.853-2.414,56.612-8.948,84.424-15.266c42.472-9.648,86.393-19.628,127.801-15.044c13.764,1.522,27.418,3.677,40.622,5.761
					c16.338,2.579,33.232,5.245,49.912,6.612c25.751,2.108,52.477,1.235,79.438-2.599c30.87-4.449,61.418-13.566,93.759-23.219
					l7.244-2.16c17.068-5.095,34.248-9.304,49.685-12.17c7.927-1.472,15.356-3.43,22.541-5.323c1.261-0.332,2.516-0.663,3.768-0.99
					c21.906-5.714,43.076-12.317,61.753-18.141c7.823-2.44,15.82-5.028,24.288-7.77c27.073-8.763,57.758-18.695,90.514-26.022
					c4.252-0.946,8.506-1.843,12.645-2.661c16.355-3.222,32.285-5.319,47.35-6.233c19.934-1.207,41.123-1.172,61.037,7.185
					c4.354,1.844,8.587,4.101,12.583,6.709c11.477,7.491,22.655,16.302,33.464,24.822c4.684,3.693,9.529,7.512,14.307,11.151
					c19.23,14.594,40.226,29.627,63.448,40.719c0.961,0.456,1.929,0.908,2.906,1.352c19.43,8.761,40.777,15.139,61.732,18.446
					c23.287,3.674,44.759,3.457,63.82-0.647l0.098,0.452c-19.117,4.115-40.644,4.334-63.989,0.651
					c-20.995-3.312-42.383-9.704-61.851-18.481c-0.979-0.446-1.951-0.898-2.914-1.356c-23.26-11.11-44.28-26.16-63.53-40.768
					c-4.782-3.641-9.628-7.461-14.314-11.155c-10.802-8.515-21.97-17.32-33.431-24.799c-3.972-2.592-8.182-4.837-12.51-6.669
					c-19.826-8.322-40.954-8.357-60.828-7.15c-15.044,0.913-30.954,3.008-47.289,6.225c-4.135,0.818-8.386,1.713-12.633,2.659
					c-32.735,7.322-63.409,17.25-90.473,26.01c-8.469,2.741-16.468,5.331-24.294,7.771c-18.682,5.827-39.857,12.43-61.773,18.148
					c-1.253,0.326-2.507,0.657-3.768,0.989c-7.193,1.895-14.631,3.855-22.574,5.331c-15.421,2.863-32.585,7.068-49.638,12.158
					l-7.243,2.161c-32.358,9.657-62.922,18.779-93.826,23.232c-26.996,3.84-53.758,4.714-79.541,2.602
					c-16.697-1.367-33.6-4.036-49.946-6.615c-13.199-2.083-26.848-4.237-40.601-5.758c-41.329-4.572-85.212,5.395-127.648,15.034
					C-52.599,639.326-81.374,645.862-109.259,648.279z"/>
			</g>
			<g>
				
					<linearGradient id="SVGID_00000029764271199215961950000002834628368820871103_" gradientUnits="userSpaceOnUse" x1="-109.2787" y1="581.5825" x2="999.8432" y2="581.5825">
					<stop  offset="0" style="stop-color:#3DFFED"/>
					<stop  offset="0.9966" style="stop-color:#CB00DD"/>
				</linearGradient>
				<path style="fill:url(#SVGID_00000029764271199215961950000002834628368820871103_);" d="M-109.228,645.245l-0.051-0.46
					c25.328-2.786,51.434-8.898,76.682-14.809c44.688-10.461,90.9-21.278,134.536-14.091c14.595,2.404,29.079,5.623,43.086,8.734
					c15.618,3.469,31.767,7.057,47.809,9.437c26.098,3.872,53.249,4.709,80.693,2.486c36.595-3.01,72.366-12.243,102.531-20.877
					c15.93-4.569,32.56-9.172,49.428-13.679c9.497-2.538,18.271-5.624,27.17-8.826c19.292-6.944,37.286-14.575,56.336-22.653
					c2.512-1.066,5.033-2.134,7.565-3.206l4.996-2.115c32.375-13.712,69.068-29.253,109.407-38.89c4.197-1,8.415-1.931,12.537-2.769
					c15.836-3.207,32.146-5.116,47.164-5.521c25.443-0.682,44.814,2.589,60.955,10.292c4.299,2.064,8.442,4.509,12.312,7.267
					c11.271,8.03,22.238,17.153,32.844,25.975c4.491,3.736,9.135,7.598,13.72,11.31c18.682,15.084,39.129,30.664,62.056,42.426
					c0.943,0.482,1.896,0.959,2.857,1.43c19.077,9.293,40.187,16.097,61.046,19.676c22.887,3.928,44.774,3.744,63.289-0.533
					l0.105,0.45c-18.576,4.291-40.523,4.477-63.472,0.539c-20.902-3.587-42.055-10.404-61.171-19.717
					c-0.964-0.472-1.919-0.949-2.865-1.433c-22.963-11.782-43.433-27.379-62.135-42.479c-4.588-3.713-9.233-7.577-13.726-11.314
					c-10.6-8.816-21.56-17.933-32.817-25.953c-3.848-2.742-7.967-5.174-12.242-7.226c-16.072-7.67-35.372-10.925-60.742-10.246
					c-14.993,0.404-31.274,2.31-47.084,5.512c-4.117,0.836-8.33,1.767-12.522,2.765c-40.301,9.628-76.976,25.161-109.334,38.866
					l-4.996,2.115c-2.533,1.07-5.053,2.14-7.565,3.205c-19.057,8.081-37.056,15.715-56.36,22.663
					c-8.909,3.206-17.694,6.295-27.207,8.837c-16.865,4.507-33.493,9.108-49.419,13.677c-30.187,8.64-65.987,17.88-102.621,20.893
					c-27.48,2.227-54.665,1.387-80.8-2.489c-16.058-2.382-32.215-5.971-47.84-9.442c-14-3.111-28.478-6.327-43.061-8.729
					c-43.545-7.174-89.711,3.633-134.355,14.083C-57.752,636.34-83.873,642.455-109.228,645.245z"/>
			</g>
			<g>
				
					<linearGradient id="SVGID_00000163035271011019479610000002926127407516475576_" gradientUnits="userSpaceOnUse" x1="-109.2597" y1="579.8878" x2="999.8459" y2="579.8878">
					<stop  offset="0" style="stop-color:#3DFFED"/>
					<stop  offset="0.9966" style="stop-color:#CB00DD"/>
				</linearGradient>
				<path style="fill:url(#SVGID_00000163035271011019479610000002926127407516475576_);" d="M265.928,646.358
					c-25.031,0-49.822-2.575-73.817-7.674c-15.604-3.35-31.225-7.813-46.333-12.129c-14.614-4.176-29.726-8.493-44.925-11.841
					c-45.542-9.913-93.701,1.776-140.274,13.079c-22.956,5.572-46.694,11.334-69.777,14.416l-0.061-0.459
					c23.059-3.078,46.785-8.837,69.729-14.406c46.625-11.317,94.837-23.019,140.482-13.082c15.214,3.352,30.333,7.671,44.953,11.848
					c15.1,4.314,30.715,8.775,46.302,12.122c26.59,5.649,54.165,8.201,81.949,7.57c32.669-0.758,66.708-6.114,104.061-16.375
					c17.237-4.74,33.78-9.851,49.171-15.188c8.621-2.991,17.528-6.594,28.031-11.34c19.818-8.958,39.129-19.243,57.804-29.189
					c2.744-1.461,5.491-2.925,8.246-4.387c31.364-16.541,70.398-37.128,114.001-48.219c4.133-1.051,8.314-2.018,12.43-2.876
					c15.599-3.248,31.849-4.907,46.977-4.807c24.495,0.169,44.407,4.551,60.871,13.396c4.246,2.289,8.297,4.921,12.042,7.826
					c11.085,8.595,21.861,18.053,32.283,27.2c4.277,3.755,8.7,7.637,13.073,11.395c18.146,15.578,38.055,31.707,60.664,44.133
					c0.927,0.508,1.862,1.012,2.807,1.508c31.879,16.732,80.964,30.901,123.12,20.486l0.11,0.45
					c-42.279,10.442-91.49-3.755-123.445-20.526c-0.948-0.499-1.886-1.004-2.815-1.514c-22.647-12.446-42.578-28.592-60.743-44.187
					c-4.373-3.76-8.798-7.643-13.076-11.398c-10.416-9.143-21.187-18.596-32.261-27.183c-3.725-2.889-7.754-5.507-11.977-7.783
					c-16.397-8.809-36.238-13.173-60.656-13.341c-15.088-0.102-31.312,1.555-46.879,4.798c-4.108,0.856-8.284,1.822-12.41,2.87
					c-43.549,11.078-82.557,31.65-113.899,48.18c-2.753,1.461-5.501,2.925-8.244,4.385c-18.682,9.951-37.999,20.24-57.832,29.203
					c-10.515,4.753-19.434,8.361-28.069,11.356c-15.4,5.341-31.954,10.453-49.2,15.197c-37.391,10.271-71.466,15.632-104.173,16.391
					C271.419,646.328,268.67,646.358,265.928,646.358z"/>
			</g>
			<g>
				
					<linearGradient id="SVGID_00000141415709102579882380000002088453999392870291_" gradientUnits="userSpaceOnUse" x1="-109.2408" y1="582.2208" x2="999.8495" y2="582.2208">
					<stop  offset="0" style="stop-color:#3DFFED"/>
					<stop  offset="0.9966" style="stop-color:#CB00DD"/>
				</linearGradient>
				<path style="fill:url(#SVGID_00000141415709102579882380000002088453999392870291_);" d="M286.591,655.76
					c-32.343,0.001-64.2-4.312-95.137-12.905c-15.251-4.236-30.443-9.555-45.135-14.7c-15.126-5.297-30.766-10.774-46.476-15.069
					c-47.314-12.934-97.23-0.26-145.506,11.997c-20.882,5.301-42.475,10.784-63.505,14.091l-0.072-0.457
					c21.009-3.303,42.592-8.783,63.464-14.083c48.334-12.271,98.314-24.961,145.742-11.994c15.726,4.299,31.374,9.779,46.507,15.079
					c14.685,5.142,29.87,10.459,45.106,14.69c43.938,12.204,89.744,15.764,136.146,10.582
					c46.402-5.181,90.294-18.759,130.459-40.353c19.983-10.744,39.407-23.055,58.19-34.961
					c41.762-26.469,84.947-53.84,135.926-64.748c21.029-4.501,42.568-5.447,62.285-2.734c23.097,3.176,42.297,11.091,57.066,23.524
					c10.93,9.201,21.545,19.031,31.81,28.538c21.988,20.362,44.725,41.417,71.609,57.209c48.808,28.671,97.66,30.534,124.662,23.417
					l0.117,0.448c-18.523,4.882-40.701,4.871-64.133-0.033c-21.027-4.401-42.648-12.722-60.881-23.432
					c-26.927-15.817-49.683-36.89-71.689-57.269c-10.262-9.502-20.872-19.329-31.794-28.523
					c-14.701-12.376-33.822-20.256-56.831-23.42c-19.664-2.705-41.148-1.761-62.124,2.728
					c-50.898,10.892-94.047,38.24-135.776,64.688c-18.791,11.909-38.222,24.225-58.219,34.977
					c-40.217,21.623-84.166,35.217-130.626,40.406C313.986,654.992,300.243,655.76,286.591,655.76z"/>
			</g>
		</g>
	</g>
</g>
</svg>
